<?xml version="1.0" encoding="utf-8"?>
<!-- Generator: Adobe Illustrator 25.0.0, SVG Export Plug-In . SVG Version: 6.00 Build 0)  -->
<svg version="1.1" id="Layer_1" xmlns="http://www.w3.org/2000/svg" xmlns:xlink="http://www.w3.org/1999/xlink" x="0px" y="0px"
	 viewBox="0 0 1920 1080" style="enable-background:new 0 0 1920 1080;" xml:space="preserve">
<style type="text/css">
	.st0{fill:url(#SVGID_1_);}
	.st1{fill:#FFFFFF;}
</style>
<linearGradient id="SVGID_1_" gradientUnits="userSpaceOnUse" x1="1230.1349" y1="43.1319" x2="659.8652" y2="1030.868">
	<stop  offset="0" style="stop-color:#FF4360"/>
	<stop  offset="0.3431" style="stop-color:#FF4B57"/>
	<stop  offset="0.9117" style="stop-color:#FF613D"/>
	<stop  offset="0.9944" style="stop-color:#FF6539"/>
</linearGradient>
<path class="st0" d="M1069.5,1062h-249C600.2,1062,420,881.8,420,661.5v-249C420,192.2,600.2,12,820.5,12h249
	c220.3,0,400.5,180.2,400.5,400.5v249C1470,881.8,1289.8,1062,1069.5,1062z"/>
<g transform="translate(0.000000,1280.000000) scale(0.100000,-0.100000)">
	<path class="st1" d="M8270,8779.2c3.2-218.4,25.6-358.7,83.5-519.2c96.1-267.4,276.1-505,576.1-761.4
		c72.7-61.9,201.4-163.5,322.4-254c38.2-28.5,47.1-36.6,44.4-39.1c-1.9-1.9-27.7-21.8-57.4-44.7
		c-224.6-172.4-385.1-316.4-514.7-461.6c-270.1-303.3-417.7-631.8-454.9-1012.6c-6.2-64.9-9.4-137.6-9.4-214.6v-69.5h1185h1185
		l-1.3,82.7c-2.4,137.4-8.1,215.7-21.8,308.4c-46.3,312.9-172.4,592.2-383.2,848.9c-136,165.9-305.9,323.7-556.4,517.4
		c-32.9,25-59.5,47.1-59.5,48.5c0,1.6,29.9,25,66.3,52.5c196.6,148.4,317,247.8,428.5,354.4c274.2,261.8,431.2,522.7,495.5,823.3
		c22.4,105,32,206.6,32,336.1v75.1H9449.3H8268.9L8270,8779.2z M10444.2,8654.8c0-14.8-7-78.1-12.1-112c-35-223-127.4-422-285.2-614
		c-23.2-28-71.1-82.4-80.5-91.3c-10.8-9.7-163.7-59.2-276.6-89.1c-241.6-64.6-414.2-69.2-630.2-17.2
		c-78.6,18.9-196.9,56.3-294.1,93.2l-28.8,11l-28,31.2c-167.5,186.6-266.9,364.4-318.3,569.6c-17,68.1-33.7,174.2-33.7,216v14.5
		h993.8h993.8V8654.8z M9475.4,7077.1c136.5-103.1,253.2-197.9,349.3-283.3c48.5-42.8,174.5-169.1,212.5-213
		c185.8-213,301.1-426.9,361.2-670.1c7.5-31,13.2-56.8,12.4-57.6c-0.5-0.8-26.9,20.5-58.7,46.9c-213.6,179.4-367.9,300.6-474.8,373
		c-329.9,223.8-520.3,224.6-851,3.5c-112-74.9-269-197.1-492-383c-31-25.6-56-45.8-56-44.4c0,10,28.5,113.7,44.4,160.8
		c102.9,308.4,302.4,575.5,640.2,857c79.2,66,284.7,227,289.5,227C9452.8,7093.8,9463.3,7086.3,9475.4,7077.1z"/>
</g>
<g transform="translate(0.000000,1280.000000) scale(0.100000,-0.100000)">
	<path class="st1" d="M6213,9994.5c0-405.5,7.8-653.2,29.1-951.2c123.1-1730,645.9-3150,1538.9-4179.6
		c134.5-154.7,273.6-295.4,436.1-441.8c361.4-324.5,816.7-610.6,1156.8-726.9l64.4-21.8c6-2,12.6-2,18.6,0l64.9,21.8
		c247.7,84.6,569,265.8,862.9,487.5c698.3,525.4,1263.2,1266.9,1652.1,2168.7c338.5,784.5,545.2,1687.9,616.3,2692.1
		c21.8,303.2,30.1,600.2,28,982.3l-1.3,244.2c-0.1,21-21.7,35-40.9,26.5l-141-62.5c-270.5-119.4-375.9-164.1-515.6-218.1
		c-469.9-181.2-849.9-281.9-1062.8-281.9c-259.6,0-810.5,163.5-1358.7,403.4l-101.5,44.2c-7.4,3.2-15.9,3.2-23.3,0l-85.4-37.5
		c-208.2-91.4-420.6-172.9-635-244.5c-399.3-132.9-653.7-181.7-835.9-161c-167.2,19.2-373.8,71.1-644.3,161.5
		c-251.8,84.1-426.8,152.6-739.3,290.8c-111.1,49.3-220.7,97.1-242.5,107l0,0c-19.2,8.1-40.5-6-40.5-26.8V9994.5z M9518.7,9520.4
		c644.3-258,1145.9-386.3,1450.1-371.2c184.8,9.3,396.7,50.4,664.6,129.3c89.8,26.5,331.2,106.4,414.3,137.6l1.6,0.6
		c19.6,7.3,40.3-7.8,39.3-28.7l-0.9-19.1c-25.4-493.2-65.9-863.4-138.1-1264.3c-231-1280.9-737.3-2332.8-1481.8-3077.3
		c-297-297-613.7-531.1-935.6-692.6l-71-35.7c-7.9-4-17.3-4.1-25.4-0.4l-23,10.7c-107,49.8-258,136.5-380.6,218.6
		c-733.6,490.1-1325.5,1259.6-1705.6,2218c-241.9,609-401.3,1294.4-477.1,2048.2c-19.2,186.9-27,295.9-42.6,577.4l-0.9,16.6
		c-1.1,20.9,19.6,36.1,39.2,28.8l2.2-0.8c81-30.6,323.5-111.1,414.3-137.6c158.4-46.7,320.9-85.7,428.3-102.8
		c28.6-4.2,65.9-10.4,83.1-13c17.1-2.6,69.1-7.8,115.8-11.4c193.7-14,430.9,21.8,762.7,115.8c181.7,51.4,505.2,164.6,718.1,250.8
		c27.9,11.3,54,21.3,67.3,26.1c6.1,2.2,12.7,2.3,18.9,0.2C9469,9539.8,9492.9,9530.7,9518.7,9520.4z"/>
</g>
</svg>
