<?xml version="1.0" encoding="utf-8"?>
<!-- Generator: Adobe Illustrator 25.0.0, SVG Export Plug-In . SVG Version: 6.00 Build 0)  -->
<svg version="1.1" id="Layer_1" xmlns="http://www.w3.org/2000/svg" xmlns:xlink="http://www.w3.org/1999/xlink" x="0px" y="0px"
	 viewBox="0 0 1920 1080" style="enable-background:new 0 0 1920 1080;" xml:space="preserve">
<style type="text/css">
	.st0{fill:url(#modularity_1_);}
	.st1{display:none;fill:url(#mobility_5_);}
	.st2{display:none;fill:url(#assembly_3_);}
	.st3{display:none;fill:url(#durability_3_);}
	.st4{display:none;}
	.st5{display:inline;fill:#FFFFFF;}
	.st6{fill:#FFFFFF;}
	.st7{display:inline;fill:#FFFFFF;stroke:url(#SVGID_1_);stroke-width:10;stroke-miterlimit:10;}
	.st8{display:inline;fill:#FFFFFF;stroke:url(#SVGID_2_);stroke-width:10;stroke-miterlimit:10;}
	.st9{fill-rule:evenodd;clip-rule:evenodd;fill:#FFFFFF;}
</style>
<linearGradient id="modularity_1_" gradientUnits="userSpaceOnUse" x1="1470" y1="537" x2="420" y2="537">
	<stop  offset="0" style="stop-color:#F09C48"/>
	<stop  offset="0.3082" style="stop-color:#EE934F"/>
	<stop  offset="0.8191" style="stop-color:#E87962"/>
	<stop  offset="0.9944" style="stop-color:#E56F6A"/>
</linearGradient>
<path id="modularity" class="st0" d="M1069.5,1062h-249C600.2,1062,420,881.8,420,661.5v-249C420,192.2,600.2,12,820.5,12h249
	c220.3,0,400.5,180.2,400.5,400.5v249C1470,881.8,1289.8,1062,1069.5,1062z"/>
<linearGradient id="mobility_5_" gradientUnits="userSpaceOnUse" x1="1438.868" y1="251.8651" x2="451.1319" y2="822.1348">
	<stop  offset="0" style="stop-color:#FA5897"/>
	<stop  offset="0.269" style="stop-color:#F9578E"/>
	<stop  offset="0.7146" style="stop-color:#F55574"/>
	<stop  offset="0.9944" style="stop-color:#F35461"/>
</linearGradient>
<path id="mobility_4_" class="st1" d="M1069.5,1062h-249C600.2,1062,420,881.8,420,661.5v-249C420,192.2,600.2,12,820.5,12h249
	c220.3,0,400.5,180.2,400.5,400.5v249C1470,881.8,1289.8,1062,1069.5,1062z"/>
<linearGradient id="assembly_3_" gradientUnits="userSpaceOnUse" x1="1230.1349" y1="1030.868" x2="659.8652" y2="43.1319">
	<stop  offset="0" style="stop-color:#CA3E8D"/>
	<stop  offset="0.3082" style="stop-color:#CF3584"/>
	<stop  offset="0.8191" style="stop-color:#DB1D6A"/>
	<stop  offset="0.9944" style="stop-color:#E01360"/>
</linearGradient>
<path id="assembly_2_" class="st2" d="M1069.5,1062h-249C600.2,1062,420,881.8,420,661.5v-249C420,192.2,600.2,12,820.5,12h249
	c220.3,0,400.5,180.2,400.5,400.5v249C1470,881.8,1289.8,1062,1069.5,1062z"/>
<linearGradient id="durability_3_" gradientUnits="userSpaceOnUse" x1="1230.1349" y1="43.1319" x2="659.8652" y2="1030.868">
	<stop  offset="0" style="stop-color:#FF4360"/>
	<stop  offset="0.3431" style="stop-color:#FF4B57"/>
	<stop  offset="0.9117" style="stop-color:#FF613D"/>
	<stop  offset="0.9944" style="stop-color:#FF6539"/>
</linearGradient>
<path id="durability_2_" class="st3" d="M1069.5,1062h-249C600.2,1062,420,881.8,420,661.5v-249C420,192.2,600.2,12,820.5,12h249
	c220.3,0,400.5,180.2,400.5,400.5v249C1470,881.8,1289.8,1062,1069.5,1062z"/>
<g id="durability_1_" transform="translate(0.000000,1280.000000) scale(0.100000,-0.100000)" class="st4">
	<path class="st5" d="M8270,8779.2c3.2-218.4,25.6-358.7,83.5-519.2c96.1-267.4,276.1-505,576.1-761.4
		c72.7-61.9,201.4-163.5,322.4-254c38.2-28.5,47.1-36.6,44.4-39.1c-1.9-1.9-27.7-21.8-57.4-44.7
		c-224.6-172.4-385.1-316.4-514.7-461.6c-270.1-303.3-417.7-631.8-454.9-1012.6c-6.2-64.9-9.4-137.6-9.4-214.6v-69.5h1185h1185
		l-1.3,82.7c-2.4,137.4-8.1,215.7-21.8,308.4c-46.3,312.9-172.4,592.2-383.2,848.9c-136,165.9-305.9,323.7-556.4,517.4
		c-32.9,25-59.5,47.1-59.5,48.5c0,1.6,29.9,25,66.3,52.5c196.6,148.4,317,247.8,428.5,354.4c274.2,261.8,431.2,522.7,495.5,823.3
		c22.4,105,32,206.6,32,336.1v75.1H9449.3H8268.9L8270,8779.2z M10444.2,8654.8c0-14.8-7-78.1-12.1-112c-35-223-127.4-422-285.2-614
		c-23.2-28-71.1-82.4-80.5-91.3c-10.8-9.7-163.7-59.2-276.6-89.1c-241.6-64.6-414.2-69.2-630.2-17.2
		c-78.6,18.9-196.9,56.3-294.1,93.2l-28.8,11l-28,31.2c-167.5,186.6-266.9,364.4-318.3,569.6c-17,68.1-33.7,174.2-33.7,216v14.5
		h993.8h993.8V8654.8z M9475.4,7077.1c136.5-103.1,253.2-197.9,349.3-283.3c48.5-42.8,174.5-169.1,212.5-213
		c185.8-213,301.1-426.9,361.2-670.1c7.5-31,13.2-56.8,12.4-57.6c-0.5-0.8-26.9,20.5-58.7,46.9c-213.6,179.4-367.9,300.6-474.8,373
		c-329.9,223.8-520.3,224.6-851,3.5c-112-74.9-269-197.1-492-383c-31-25.6-56-45.8-56-44.4c0,10,28.5,113.7,44.4,160.8
		c102.9,308.4,302.4,575.5,640.2,857c79.2,66,284.7,227,289.5,227C9452.8,7093.8,9463.3,7086.3,9475.4,7077.1z"/>
</g>
<g id="durability" transform="translate(0.000000,1280.000000) scale(0.100000,-0.100000)" class="st4">
	<path class="st5" d="M6213,9994.5c0-405.5,7.8-653.2,29.1-951.2c123.1-1730,645.9-3150,1538.9-4179.6
		c134.5-154.7,273.6-295.4,436.1-441.8c361.4-324.5,816.7-610.6,1156.8-726.9l64.4-21.8c6-2,12.6-2,18.6,0l64.9,21.8
		c247.7,84.6,569,265.8,862.9,487.5c698.3,525.4,1263.2,1266.9,1652.1,2168.7c338.5,784.5,545.2,1687.9,616.3,2692.1
		c21.8,303.2,30.1,600.2,28,982.3l-1.3,244.2c-0.1,21-21.7,35-40.9,26.5l-141-62.5c-270.5-119.4-375.9-164.1-515.6-218.1
		c-469.9-181.2-849.9-281.9-1062.8-281.9c-259.6,0-810.5,163.5-1358.7,403.4l-101.5,44.2c-7.4,3.2-15.9,3.2-23.3,0l-85.4-37.5
		c-208.2-91.4-420.6-172.9-635-244.5c-399.3-132.9-653.7-181.7-835.9-161c-167.2,19.2-373.8,71.1-644.3,161.5
		c-251.8,84.1-426.8,152.6-739.3,290.8c-111.1,49.3-220.7,97.1-242.5,107l0,0c-19.2,8.1-40.5-6-40.5-26.8V9994.5z M9518.7,9520.4
		c644.3-258,1145.9-386.3,1450.1-371.2c184.8,9.3,396.7,50.4,664.6,129.3c89.8,26.5,331.2,106.4,414.3,137.6l1.6,0.6
		c19.6,7.3,40.3-7.8,39.3-28.7l-0.9-19.1c-25.4-493.2-65.9-863.4-138.1-1264.3c-231-1280.9-737.3-2332.8-1481.8-3077.3
		c-297-297-613.7-531.1-935.6-692.6l-71-35.7c-7.9-4-17.3-4.1-25.4-0.4l-23,10.7c-107,49.8-258,136.5-380.6,218.6
		c-733.6,490.1-1325.5,1259.6-1705.6,2218c-241.9,609-401.3,1294.4-477.1,2048.2c-19.2,186.9-27,295.9-42.6,577.4l-0.9,16.6
		c-1.1,20.9,19.6,36.1,39.2,28.8l2.2-0.8c81-30.6,323.5-111.1,414.3-137.6c158.4-46.7,320.9-85.7,428.3-102.8
		c28.6-4.2,65.9-10.4,83.1-13c17.1-2.6,69.1-7.8,115.8-11.4c193.7-14,430.9,21.8,762.7,115.8c181.7,51.4,505.2,164.6,718.1,250.8
		c27.9,11.3,54,21.3,67.3,26.1c6.1,2.2,12.7,2.3,18.9,0.2C9469,9539.8,9492.9,9530.7,9518.7,9520.4z"/>
</g>
<g id="assembly_1_" transform="translate(0.000000,1280.000000) scale(0.100000,-0.100000)" class="st4">
	<path class="st5" d="M9326.9,11619.6c2-77.2,6-347.2,8.1-601.1l4.7-462.1h56.4h57.1l-4,59.1c-2,32.2-5.4,253.2-7.4,491.6
		c-2,238.4-5.4,482.2-7.4,542.7l-4.7,108.8h-53.7h-53.7L9326.9,11619.6z"/>
	<path class="st5" d="M11222.9,10752.5c-146.4-264.6-277.4-500.4-290.1-523.2l-22.8-41.6l46.3-26.9l46.3-26.9l12.8,21.5
		c12.1,19.5,566.8,1016.8,570.9,1025.6c1.3,3.4-86.6,53.7-93.4,53.7C11491.5,11234.7,11370,11017.8,11222.9,10752.5z"/>
	<path class="st5" d="M7232.1,11147.4c-22.8-14.1-39.6-29.6-38.3-34.3c3.4-14.8,614.5-1013.5,619.9-1013.5
		c8.1,0,86.6,48.4,86.6,53.1c0,7.4-617.9,1018.2-623.3,1019.5C7274.4,11173,7254.3,11161.5,7232.1,11147.4z"/>
	<path class="st5" d="M9724.5,11132.7c-6-25.5-63.8-572.2-61.8-574.9c4.7-4.7,99.4-15.4,102.8-12.1c2,2,16.8,125.6,32.9,274
		c16.1,149.1,30.2,280.1,32.2,292.2c3.4,24.2,6.7,22.2-71.2,32.2C9729.9,11148.1,9727.2,11146.8,9724.5,11132.7z"/>
	<path class="st5" d="M8980.3,11115.9c-18.1-2-25.5-6-25.5-14.1c0-18.1,74.5-568.2,77.2-571.5c3.4-2.7,97.4,10.7,101.4,14.8
		c2,2-13.4,129.6-34.3,284.8c-20.1,154.5-36.9,283.4-36.9,286.1C9062.3,11120.6,9026.7,11120.6,8980.3,11115.9z"/>
	<path class="st5" d="M10107.3,11074.2c-9.4-28.9-123.6-554.8-121.6-556.8c2.7-3.4,100.1-28.2,101.4-26.2
		c4.7,4.7,124.2,557.4,122.2,563.5c-1.3,4-24.2,12.8-51,18.8C10114.7,11084.3,10110,11084.3,10107.3,11074.2z"/>
	<path class="st5" d="M8610.9,11055.4c-21.5-5.4-39-12.8-39-15.4c0-10.1,127.6-560.1,131-562.8c3.4-3.4,87.3,12.8,96.7,18.8
		c4,2-19.5,117.5-58.4,287.5C8668,11102.4,8681.5,11074.2,8610.9,11055.4z"/>
	<path class="st5" d="M10482.7,10992.3c-10.1-28.2-170.6-536-172.6-546.7c-1.3-10.1,6.7-15.4,47.7-28.2c27.5-8.7,50.4-14.8,51-14.1
		c4,5.4,179.3,563.5,177.3,565.5c-1.3,0.7-20.8,6.7-43,13.4c-22.2,6.7-44.3,14.1-48.4,15.4
		C10490.1,10999.7,10484.8,10997,10482.7,10992.3z"/>
	<path class="st5" d="M8248.3,10948c-25.5-9.4-45.7-19.5-45.7-22.2c0-5.4,194.8-539.3,197.5-542.7c2.7-2,92,30.9,96.7,35.6
		c4,4-194.1,547.4-199.5,546.7C8295.3,10965.4,8273.1,10957.4,8248.3,10948z"/>
	<path class="st5" d="M10729.2,10598.7l-114.8-267.3l47.7-22.2c26.2-12.1,49.7-19.5,52.4-16.8c3.4,4,212.2,487.6,226.3,523.9
		c2,5.4-11.4,15.4-41.6,28.9c-24.9,10.7-47,20.1-49.7,20.1S10792.4,10745.1,10729.2,10598.7z"/>
	<path class="st5" d="M7893.6,10803.6c-24.2-10.7-44.3-20.8-45.7-22.2c-1.3-1.3,245.8-521.2,249.8-525.2c0.7-1.3,23.5,8.7,49.7,21.5
		l48.4,22.8l-36.3,75.9c-111.5,236.4-214.9,448.6-218.3,448C7939.3,10824.4,7917.8,10815,7893.6,10803.6z"/>
	<path class="st5" d="M11354.5,10259.5l-168.6-236.4l39.6-28.9c21.5-16.1,42.3-28.9,45.7-28.9c2.7,0,81.3,105.4,174,235.1
		l168.6,234.4l-43,30.9c-23.5,16.8-43.7,30.2-45,30.2C11524.4,10495.3,11447.9,10389.2,11354.5,10259.5z"/>
	<path class="st5" d="M7228.7,10408c-20.1-14.8-36.3-30.9-36.3-36.3c0.7-8.7,343.2-460.1,349.2-460.1c4.7,0,83.3,60.4,83.3,63.8
		c0,4.7-349.9,456.7-354.6,458.7C7267,10434.8,7248.9,10423.4,7228.7,10408z"/>
	<path class="st5" d="M11635.9,10044.6l-189.4-216.9l38.3-35.6c20.8-19.5,40.3-34.3,42.3-33.6c2.7,1.3,90,99.4,194.1,218.9
		l188.7,216.3l-27.5,24.8c-32.9,29.6-48.4,41.6-53.7,42.3C11826.7,10260.9,11740,10163.5,11635.9,10044.6z"/>
	<path class="st5" d="M6927.2,10157.5l-35.6-35.6l204.2-212.2l203.5-212.2l39,38.3l38.3,37.6l-49,51
		c-26.9,27.5-118.2,122.2-202.2,210.2c-84.6,87.3-155.8,159.2-157.8,159.2C6964.8,10193.7,6946.7,10177.6,6927.2,10157.5z"/>
	<path class="st5" d="M11896.5,9804.2c-116.2-106.8-212.2-198.1-213.6-202.8c-0.7-4.7,14.1-24.2,33.6-43.7l35.6-34.3l211.6,194.8
		c116.2,106.8,211.6,196.8,211.6,199.5s-14.8,22.2-33.6,43l-33.6,37.6L11896.5,9804.2z"/>
	<path class="st5" d="M6663.9,9884.1c-20.1-23.5-32.2-43-28.9-46.3c18.1-17.5,436.6-369.4,439.2-369.4c4.7,0,69.2,80.6,66.5,83.3
		c-3.4,2.7-241.8,204.2-356.6,301.6l-84.6,71.9L6663.9,9884.1z"/>
	<path class="st5" d="M12218.9,9604.7c-71.9-53.7-176-130.3-230.4-171.3l-99.4-73.2l20.8-28.2c11.4-15.4,25.5-34.9,32.2-43
		l11.4-15.4l231.7,171.3c127.6,94,232.4,174,233.7,178c3.4,8.7-52.4,80.6-61.8,79.9C12353.2,9702.8,12290.7,9658.4,12218.9,9604.7z"
		/>
	<path class="st5" d="M12595,9397.2c-278.7-163.9-509.1-300.9-512.4-304.2c-4.7-4.7,25.5-66.5,46.3-93.4
		c2-3.4,1010.1,588.3,1022.9,600.4c7.4,6.7,4.7,15.4-16.8,52.4c-14.8,24.2-27.5,44.3-29.6,43.7
		C13103.4,9696.1,12873.7,9561.7,12595,9397.2z"/>
	<path class="st5" d="M6424.1,9577.9c-16.1-24.2-26.9-46.3-23.5-49c7.4-7.4,478.9-315.7,481.6-315.7c4,0,59.1,88,56.4,90
		c-1.3,1.3-430.5,282.8-472.1,310.3C6454.4,9621.5,6451,9618.8,6424.1,9577.9z"/>
	<path class="st5" d="M5688,9565.1c-14.1-24.2-22.8-47-19.5-49.7c7.4-7.4,1030.3-584.3,1035.6-584.3c2,0,15.4,20.8,28.9,45.7
		l24.9,45.7l-517.1,292.2c-284.8,160.5-519.2,292.2-521.8,293.5C5716.3,9608.7,5702.1,9589.3,5688,9565.1z"/>
	<path class="st5" d="M12521.1,8937.8c-131-62.5-249.2-118.9-263.3-125.6l-24.2-12.1l24.2-47.7l24.8-47.7l261.3,122.9
		c143.7,67.8,263.3,124.9,264.6,126.9c4.7,4-39.6,97.4-45,96.7C12761.6,9051.3,12652.1,8999.6,12521.1,8937.8z"/>
	<path class="st5" d="M6062.8,8934.4c-4.7-12.8-14.1-34.3-19.5-48.4c-5.4-13.4-9.4-24.8-8.7-25.5c1.3-0.7,98.7-41.6,216.9-90.7
		s237.8-99.4,266-111.5l51.7-21.5l20.8,47.7c11.4,26.2,18.8,49.7,16.1,52.4c-6.7,6-518.5,221-526.6,221
		C6075.6,8957.9,6068.2,8947.2,6062.8,8934.4z"/>
	<path class="st5" d="M12630.6,8600c-144.4-49-265.3-90.7-267.3-93.4c-4-3.4,20.1-90,27.5-98.7c4.7-5.4,553.4,182.7,553.4,190.1
		c0,4.7-6,26.9-14.1,49.7c-10.1,29.6-17.5,41.6-24.8,41C12898.6,8688.6,12775.7,8648.3,12630.6,8600z"/>
	<path class="st5" d="M5919.8,8551.6c-8.7-28.2-14.1-52.4-13.4-53.7c6.7-5.4,546-164.5,552.1-162.5c6.7,2,40.3,98.7,34.3,98.7
		c-2.7,0-540,161.9-550.7,165.9C5937.9,8601.3,5928.5,8580.5,5919.8,8551.6z"/>
	<path class="st5" d="M12729.3,8258.8c-145.7-32.9-268.6-61.1-272.7-62.5c-5.4-2-4.7-16.1,3.4-50.4c6-25.5,12.8-48.4,14.8-50.4
		c4-4.7,557.4,116.2,564.8,122.9c2.7,2,0,26.2-6,53.1c-9.4,41.6-12.8,48.4-24.9,47.7C13000.6,8319.2,12875.1,8291.7,12729.3,8258.8z
		"/>
	<path class="st5" d="M5835.1,8223.2c-6-18.1-22.2-98.1-19.5-98.1c0.7,0,43.7-8.7,94.7-20.1c275.4-59.1,474.2-100.7,475.5-99.4
		c2,3.4,22.8,102.8,21.5,103.4c-1.3,1.3-96,21.5-466.8,100.1C5868.7,8224.5,5836.5,8228.6,5835.1,8223.2z"/>
	<path class="st5" d="M12790.4,7909.5c-149.1-18.1-272-33.6-273.3-34.9c-4-3.4,5.4-90,10.1-98.1c3.4-4.7,94.7,3.4,289.5,26.9
		c156.5,18.1,285.4,34.3,286.1,34.9c0.7,0.7-2,24.9-6,53.7c-5.4,46.3-7.4,51.7-20.8,51
		C13068.5,7942.5,12939.5,7927.7,12790.4,7909.5z"/>
	<path class="st5" d="M5774.7,7840.4c-1.3-4-4-27.5-6-53.1c-3.4-33.6-2-45.7,4-47.7c4.7-1.3,75.2-8.7,156.5-16.8
		c81.3-8.1,207.5-20.8,280.7-28.9c73.2-7.4,133.7-12.8,135-11.4c1.3,1.3,4.7,25.5,7.4,53.7l4,51l-75.9,8.1
		C5911.7,7835,5776.7,7847.1,5774.7,7840.4z"/>
	<path class="st5" d="M13014.8,7560.3c-199.5-2-387.5-4.7-417.7-5.4l-55.7-0.7v-53.7v-54.4l347.9,4c190.7,2,460.1,5.4,597.7,7.4
		l249.8,4v53.1v53.1l-179.3-1.3C13458,7565.7,13214.2,7563,13014.8,7560.3z"/>
	<path class="st5" d="M5725.7,7462.2l-585.7-2v-53.7v-53.7h597.7h597.7v57.1c0,50.4-1.3,57.1-11.4,55.7
		C6317.4,7464.3,6048,7462.9,5725.7,7462.2z"/>
	<path class="st5" d="M12531.2,7225.2c-0.7-2-2.7-26.2-4-53.7l-2.7-50.4l268.6-24.8c147.8-13.4,278.1-24.9,290.1-24.9l20.8-0.7
		l4.7,50.4c2.7,28.2,4,51.7,2.7,53.1C13106.8,7178.8,12533.9,7229.2,12531.2,7225.2z"/>
	<path class="st5" d="M6060.1,7114.3l-285.4-33.6l2.7-26.9c4-54.4,10.7-80.6,20.8-79.3c5.4,0.7,135,15.4,287.5,33.6l277.4,32.2
		l-4.7,43.7c-2.7,24.2-6,48.4-8.7,53.7C6346.2,7146.6,6309.3,7143.9,6060.1,7114.3z"/>
	<path class="st5" d="M12479.5,6852.4c-10.1-49.7-10.1-50.4,4-53.7c22.2-5.4,550.7-110.8,554.8-110.8c4.7,0,23.5,100.1,19.5,103.4
		c-3.4,3.4-544,111.5-557.4,111.5C12492.2,6902.8,12486.9,6890,12479.5,6852.4z"/>
	<path class="st5" d="M6121.2,6757c-153.1-34.3-279.4-63.8-281.4-65.8c-2-2,1.3-26.2,8.1-54.4c10.1-41,14.1-49.7,22.8-47
		c6.7,2,127.6,29.6,270,61.1c142.4,31.6,263.9,59.1,270.7,61.1c10.7,3.4,11.4,8.1,8.1,31.6c-2.7,15.4-8.7,38.3-12.8,51.7l-7.4,24.2
		L6121.2,6757z"/>
	<path class="st5" d="M12400.9,6552.9c-7.4-23.5-14.1-47-14.1-53.1c0-7.4,24.2-18.1,89.3-38.3c364-113.5,463.4-143.7,466.8-140.4
		c2,2.7,10.1,25.5,18.8,51l14.8,47l-95.4,29.6c-51.7,16.8-174.6,55.1-272.7,85.3c-98.1,30.2-181.3,56.4-185.4,57.8
		C12418.4,6593.2,12409,6577.1,12400.9,6552.9z"/>
	<path class="st5" d="M6207.9,6421.2c-149.8-50.4-272.7-92-273.3-92.7c-1.3-0.7,6-24.2,15.4-51.7l16.8-51l273.3,90.7
		c150.4,50.4,274.7,92,276,93.4c4,4-27.5,103.4-32.2,102.8C6481.9,6512.6,6357.6,6470.9,6207.9,6421.2z"/>
	<path class="st5" d="M12287.4,6235.2l-20.1-50.4l47.7-20.1c26.9-10.7,128.3-53.1,226.3-93.4c175.3-72.5,263.3-108.8,265.3-108.8
		c6,0,36.9,96,32.9,100.1c-4.7,4-468.1,198.8-522.5,219.6C12310.9,6284.2,12301.5,6269.4,12287.4,6235.2z"/>
	<path class="st5" d="M6392.6,6106.2c-114.2-53.7-233.1-108.8-263.9-123.6l-55.1-26.2l21.5-45.7c12.1-24.9,22.8-47,23.5-48.4
		c2-2.7,513.8,233.7,521.8,241.8c5.4,4.7-22.8,78.6-36.3,94C6602.1,6200.9,6507.4,6159.3,6392.6,6106.2z"/>
	<path class="st5" d="M12143.7,5943l-25.5-47l59.1-32.9c233.7-133,983.9-552.1,985.3-550.7c16.1,20.8,49.7,89.3,45.7,93.4
		c-6.7,6-1015.5,574.9-1029.6,579.6C12171.2,5988,12161.1,5975.3,12143.7,5943z"/>
	<path class="st5" d="M6231.4,5619.3c-276.7-165.9-506.4-302.2-509.8-303.6c-6.7-2,43-92,51.7-92c4.7,0,1010.8,595.1,1020.2,603.8
		c4.7,4.7-46.3,95.4-53.7,94C6737.1,5920.9,6508.8,5785.2,6231.4,5619.3z"/>
	<path class="st5" d="M11964.3,5667.7c-15.4-22.2-27.5-41.6-27.5-43.7c0-1.3,80.6-58.4,180-125.6c98.7-67.2,206.9-141.7,240.4-165.2
		l61.8-42.3l28.2,44.3c24.9,36.9,27.5,45,19.5,52.4c-14.1,13.4-452.7,312.3-464.8,317C11994.6,5707.3,11983.8,5695.9,11964.3,5667.7
		z"/>
	<path class="st5" d="M6698.2,5481c-120.2-90.7-223.6-168.6-231-173.3c-12.1-8.7-10.7-11.4,16.8-49.7c16.1-22.2,32.2-41,35.6-41
		c4.7,0,440.6,322.4,463.4,343.2c5.4,4.7-53.1,87.3-61.8,86C6918.5,5646.2,6818.4,5571.6,6698.2,5481z"/>
	<path class="st5" d="M11770.2,5415.1l-33.6-38.3l218.3-194.1l218.9-194.1l35.6,38.3c19.5,21.5,35.6,40.3,35.6,42.3
		c-0.7,5.4-425.1,378.1-433.2,380.8C11807.2,5451.4,11789,5436,11770.2,5415.1z"/>
	<path class="st5" d="M6913.1,5196.9c-112.8-106.8-205.5-198.1-206.9-202.8c-0.7-4.7,14.1-24.2,33.6-43.7l35.6-34.3l194.8,184
		c107.5,101.4,202.2,192.1,211.6,200.8l16.1,16.8l-36.3,36.9c-20.1,20.1-38.3,36.9-40.3,36.9
		C7119.3,5391.6,7025.9,5303.7,6913.1,5196.9z"/>
	<path class="st5" d="M11537.2,5175.4l-36.9-35.6l161.9-174.6c89.3-96,178.7-192.1,198.8-213.6l36.9-39l39,36.9l38.3,36.9
		l-194.1,210.2c-106.8,115.5-197.5,211.6-200.8,212.2C11576.8,5210.3,11557.3,5195.5,11537.2,5175.4z"/>
	<path class="st5" d="M7159.6,4946.4l-192.8-216.3l37.6-34.9c20.1-19.5,39-35.6,41.6-35.6c4.7,0,379.5,419.8,382.8,429.2
		c0.7,3.4-16.1,20.8-37.6,39.6l-39,34.3L7159.6,4946.4z"/>
	<path class="st5" d="M11297.4,4979.9c-21.5-15.4-39-30.9-39-33.6c0-5.4,218.3-303.6,314.3-429.8l28.9-38.3l28.2,20.1
		c15.4,11.4,34.9,25.5,43.7,32.2l14.8,11.4l-171.3,231.7c-94,127.6-174,232.4-176.6,233.1
		C11337.7,5007.5,11318.2,4995.4,11297.4,4979.9z"/>
	<path class="st5" d="M7434.3,4730.1c-90.7-126.9-165.9-234.4-166.6-238.4c-1.3-4,16.8-20.8,39.6-37.6l41.6-30.2l23.5,32.2
		c163.9,229,311.6,441.3,309.6,445.3c-1.3,2-20.8,16.8-43,32.2l-39.6,28.2L7434.3,4730.1z"/>
	<path class="st5" d="M11018.7,4794.6c-26.2-14.8-41-27.5-39-32.9c4.7-12.8,595.1-1003.4,603.8-1013.5c6-6.7,17.5-2,53.1,18.8
		c43.7,26.2,45,28.2,36.3,41.6c-4.7,8.1-143.1,239.1-306.9,513.8c-163.2,274-298.9,498.3-301.6,497.7
		C11062.4,4819.4,11041.5,4808.7,11018.7,4794.6z"/>
	<path class="st5" d="M7857.4,4751.6c-39-67.2-554.8-1014.1-554.8-1018.2c0-2,20.8-14.8,45.7-28.2l46.3-24.2l284.8,520.5
		c156.5,286.1,285.4,522.5,286.1,524.5c1.3,2-19.5,15.4-45,28.9l-46.3,25.5L7857.4,4751.6z"/>
	<path class="st5" d="M10738,4644.8c-26.2-12.1-47.7-22.2-49-22.8c-1.3-0.7,237.8-522.5,243.8-531.9c1.3-2,92,37.6,96,42.3
		c2.7,2-201.5,449.3-233.1,511.8l-10.7,22.2L10738,4644.8z"/>
	<path class="st5" d="M8051.5,4360c-61.8-145.7-111.5-266-110.1-267.3c11.4-7.4,94.7-38.3,97.4-36.3c4,4.7,224.3,523.9,224.3,529.2
		c0,4.7-83.3,40.3-93.4,40.3C8167,4626,8113.9,4506.4,8051.5,4360z"/>
	<path class="st5" d="M10432.4,4524.6c-20.1-6.7-40.3-14.1-45-16.1c-5.4-2,8.7-51.7,45.7-159.2c30.2-86,72.5-209.5,94.7-274
		c22.2-64.5,41.6-118.9,43-120.2c1.3-1.3,24.8,6,51.7,16.1l50.4,18.1l-39,111.5c-21.5,61.8-64.5,185.4-95.4,274.7
		c-30.9,90-58.4,163.2-62.5,162.5C10472.7,4538,10452.5,4532,10432.4,4524.6z"/>
	<path class="st5" d="M8449.1,4453.4c-137.7-452.7-150.4-495.7-143.1-499.7c15.4-8.1,91.3-28.2,94.7-25.5c1.3,2,39.6,123.6,84,270
		c45,147.1,82.6,271.3,84.6,276.7c2.7,6.7-9.4,12.8-43,22.8c-25.5,8.1-49.7,14.1-53.1,14.1
		C8469.9,4511.8,8458.5,4485.6,8449.1,4453.4z"/>
	<path class="st5" d="M10111.3,4433.2c-26.2-6-41.6-12.8-39.6-18.1c1.3-4,30.9-128.3,64.5-276c34.3-147.8,63.1-272,64.5-276.7
		c2-5.4,15.4-4,50.4,4.7c26.9,6.7,49.7,14.1,51.7,16.1c2.7,2.7-107.5,495-122.9,550.1C10175.8,4446.7,10168.4,4446.7,10111.3,4433.2
		z"/>
	<path class="st5" d="M8773.5,4425.2c0-7.4-97.4-527.2-104.1-556.1c-3.4-12.8,0.7-14.8,49-23.5c50.4-9.4,51.7-9.4,56.4,4
		c4.7,12.8,106.1,546.7,106.1,556.8c0,2-17.5,7.4-38.3,11.4c-21.5,4-45.7,9.4-53.7,11.4C8779.5,4431.2,8773.5,4429.2,8773.5,4425.2z
		"/>
	<path class="st5" d="M9786.3,4378.2c-17.5-2.7-32.9-6-34.9-8.1c-4-4,65.8-568.2,70.5-572.2c1.3-2,26.2,0,55.1,4l51.7,6l-3.4,21.5
		c-2,11.4-16.8,131-33.6,266c-16.8,135-31.6,255.2-33.6,267.3C9854.1,4386.2,9850.7,4386.9,9786.3,4378.2z"/>
	<path class="st5" d="M9102.6,4366.1c0-6.7-12.1-137-26.9-290.1c-14.8-153.1-26.2-279.4-24.9-280.1c0.7-0.7,24.2-2.7,53.1-5.4
		l51-4.7l4,25.5c7.4,48.4,53.1,553.4,50.4,555.4c-1.3,1.3-26.2,4.7-54.4,7.4C9106.6,4378.2,9102.6,4377.5,9102.6,4366.1z"/>
	<path class="st5" d="M9424.9,4204.2c0-84.6,2-353.3,4.7-597.7l4-444.6h53.1h52.4v173.3c0,95.4-2,364.7-4.7,597.7l-4,424.5h-53.1
		h-52.4V4204.2z"/>
</g>
<g id="assembly" transform="translate(0.000000,1112.000000) scale(0.100000,-0.100000)" class="st4">
	<path class="st5" d="M9637.2,8198.8c-149.3-11.1-287.6-33.7-435.8-72.1c-29.3-7.5-58.2-14.7-64.2-15.8c-6.3-0.8-11.1-3.2-11.1-4.8
		c0-5.9,29.7-6.7,49.5-1.6c44,11.1,113.7,15.1,171.1,9.9c206.8-19,431-107.8,620-246c59-42.8,153.3-138.3,186.6-188.6
		c42.8-64.6,62.6-114.5,70.1-177.9c6.7-57-2-100.6-33.3-164.4l-20.2-41.6v-45.6c0-26.9,2.4-53.9,5.5-65.4
		c6.3-22.6,25.7-63.8,35.3-74.5c5.9-6.7,5.1-7.9-7.5-20.2c-7.5-7.5-196.5-181-419.9-385.8l-406.8-372.4l-308.2,267.4
		c-169.9,147-313.7,271.8-319.7,276.9l-11.1,9.5l17.8,72.1c56.6,227.8,152.5,616,153.7,621.9c0.8,5.1-26.9,23.4-113.7,74.9
		c-400.1,237.3-720.6,428.6-780.4,466.7c-26.1,16.2-49.5,30.1-52.3,30.5c-3.6,0.8-142.6-124.4-251.5-226.6l-26.5-25l208.8-191.3
		c264.6-242.4,307.4-281.7,330.4-302.6l18.2-17l-23.8-76.5c-13.1-42-26.9-87.2-30.9-100.2c-14.7-47.9-47.1-150.9-50.3-160
		c-3.6-9.1-17.8-13.1-191.3-58.2c-179.5-46.7-188.2-48.7-195.7-42c-4,3.6-129.9,118.4-278.9,255.5l-271.4,248.4l-10.3-9.1
		c-149.3-135.9-241.6-221.8-243.2-226.2c-1.2-3.2,57.8-82.8,146.6-196.9c152.9-196.9,260.7-337.1,408.8-533.2
		c46.7-61.8,87.2-112.1,90.3-112.1c5.1,0,31.3,4.4,129.9,21.8c19.8,3.6,55.9,9.9,80.4,14.3c24.2,4,64.6,11.1,89.1,15.4
		c24.2,4,65,11.1,89.9,15.4c25,4.4,66.2,11.5,91.1,15.8c25,4.4,66.2,11.5,91.1,15.8c25,4.4,66.9,11.9,93.1,16.2
		c26.1,4.8,56.6,9.9,67.3,11.9l19.8,3.2l49.5-48.3c49.1-48.3,376.7-366.8,405.2-394.2l14.7-14.7l-173.1-152.1
		c-95.5-84-286.4-251.9-425.1-374c-138.3-121.6-330-290-425.5-374.4c-353.8-311-486.1-427-575.2-505.9
		c-50.7-44.4-101.8-91.5-113.7-104.6c-47.1-51.1-61.8-108.5-40.8-163.6c11.5-30.9,25.7-53.5,54.7-86.8
		c23.8-27.3,357.3-333.5,390.6-358.5c27.7-21,76.5-45.2,115.7-57.4c24.2-7.5,38.4-9.1,77.2-9.1c55.1,0,77.6,5.5,116.5,28.5
		c25,15.1,59.4,47.9,576.8,547.9c89.5,86.4,193.7,187,231.7,223.8c67.3,65,115.7,111.3,465.5,449.6
		c249.2,241.2,341.9,329.6,344.6,329.2c2,0,322.9-311.8,560.5-545.1c49.1-47.9,196.1-191.7,326.8-318.9
		c130.7-127.6,311.8-303.8,402.1-392.2c280.1-272.9,294.3-286.8,320.9-305.8c53.5-37.6,95.5-58.2,154.5-74.5
		c44-12.3,135.9-13.9,181.4-2.8c101,24.2,187.4,81.2,250.8,165.2c21,27.3,52.3,92.7,60.6,126.8c28.1,110.9-6.3,222.6-95.5,309.4
		c-25.7,25.4-1423.3,1239.1-1728,1501c-52.3,44.8-94.7,83.2-94.7,85.2c0,2.4,109.3,103.8,242.4,225.8s319.3,292.4,414,379.1
		l171.5,157.3l30.9-21.8c36-25,78-45.6,114.9-55.5c38.8-10.7,124-9.9,177.9,1.6c50.3,10.7,80.4,11.1,120.8,0.8
		c76.9-19.4,134.7-65.4,251.2-199.3l47.5-54.7l-38.8-37.6c-31.3-30.5-40.8-42.8-51.9-66.2c-12.7-26.5-13.5-31.3-13.5-68.1
		c0-33.7,1.6-43.6,11.1-67.3c21-53.5,65-99.8,119.6-125.2c37.6-17.8,62.6-23.4,105.4-23.4c44,0,76.1,8.7,108.1,29.3
		c20.2,13.1,353.4,314.9,385.4,349.4c52.3,55.9,59,141,17,211.9c-21,35.7-63.8,74.9-99.8,92.3c-41.2,19.4-59.4,23.8-104.2,23.8
		c-40.8,0-65-5.5-98.6-22.2l-15.1-7.5l-9.9,9.1c-19.8,17.8-77.6,89.1-101,124c-13.1,19.8-43.2,74.1-66.6,120.8
		c-49.5,99-59.4,116.9-92.3,162.4c-39.6,55.5-128,157.3-169.5,196.1c-45.2,41.6-201.2,187.8-235.3,219.9
		c-51.9,49.1-329.2,308.2-352.6,329.2c-40,36.8-91.5,76.1-146.2,112.5c-166.4,110.5-341.1,173.5-562.9,202.4
		C9886.4,8197.6,9687.5,8202.3,9637.2,8198.8z M11364.8,4310.7c35.7-9.9,71.7-35.3,92.7-63.8c23.4-31.3,31.3-56.6,31.3-98.2
		c0-30.5-1.2-36.4-14.7-63.8c-25-52.3-68.5-84.4-132.7-97.8c-40.8-8.3-80.8-2.8-121.6,17c-34.5,16.6-47.5,29.7-57.8,59.4
		c-24.2,68.9-6.7,164.8,39.6,216.7c19.8,22.6,41.6,33.3,75.7,38C11308.9,4322.6,11330.7,4320.6,11364.8,4310.7z"/>
</g>
<g id="mobility" transform="translate(0.000000,1268.000000) scale(0.100000,-0.100000)" class="st4">
	<path class="st6" d="M9514.5,5619.1c21.5,177.3,63.9,906.5,83.7,1441.8c10.3,274.8,8.2,342.5-11.7,413.1
		c-9.9,35.3-35,84.9-57.5,113.8c-9.1,12.1-90.1,87.7-190.6,178.5c-348.9,314.5-452.4,408.3-558.4,506.5l-108.1,99.5l-18.8-15.6
		c-10.1-8.3-19.4-17-20.4-18.7c-1-1.8,7.9-17,19.9-34.2c48.6-69.5,142.5-223.8,310.1-510c178.7-305.9,214.4-363,242.7-390.7
		c11.5-11.3,13.8-16.4,16.5-34c1.8-11.4,9.6-54,17.7-94.5c23.3-116.8,35.1-202.9,73.4-537.1c69.7-606.1,105.3-887.5,134.2-1063.2
		c6.2-36.1,11.1-66.7,11.1-67.8s12.5-1.6,27.4-1.1l27.3,1L9514.5,5619.1z"/>
</g>
<g id="mobility_1_" transform="translate(0.000000,1278.000000) scale(0.100000,-0.100000)" class="st4">
	<path class="st5" d="M10613.4,9969.1c-7.8-1.3-21.2-5.6-29.3-10.6c-8-5-99.7-93.9-203.9-198c-104.1-103.7-198.4-196.9-209.8-206.9
		c-33.4-28.9-31.6-29-151.8,2.4l-106.6,27.3l-19.2,17.9c-19.2,17.9-20.7,22.1-106.1,287.5c-48,148.1-89.4,276.4-92.8,285.4
		c-7.3,20.4-25.8,37.6-47.9,44.3c-18.3,5.6-548.4-8.2-568.5-14.6c-30-10-41.3-28.8-55.5-92.4c-28.1-129.1-85.2-388.9-98.6-448.5
		l-14.7-66.7l-19.7-20.5c-19-19.8-24.5-22.3-125.5-54.9c-58.2-18.6-113.1-34-122-34.1c-38,0.4-41.9,3-281.5,199.9
		c-245.9,202.2-238.8,196.7-276.5,191.9c-18.5-2.7-454.4-300-467-318.5c-7.2-11.3-9.6-19.4-10-32.8c0.2-11.7,35.9-114.6,99.7-287
		c86.2-233.6,99-272.4,97.7-292c-2.4-29.5-2.4-29.5-97.9-144.6c-84.8-103-100.9-116.3-137.7-118.1c-10.8-0.4-146.5,13.8-302.2,32.3
		c-296.2,35.2-297.6,35.1-324.1,15.3c-31.2-23.1-241.1-516.4-226.5-532.5c2-2.5,110.5-84.7,240.6-182.9s241.7-184.1,247.6-190.6
		c23.2-24.7,24-45,6.6-194.1c-8.7-76-18.6-146.9-22.1-158.4c-4-13.2-12.2-26.5-21.6-35.8c-10.1-10.4-94-53.7-271.4-140.3
		c-141.3-68.7-262.3-130-269-135.4c-8.3-7.3-14.2-17.6-18.1-32.2c-6-19.6-1.9-44.5,38.2-264.6c25-133.6,48.6-250.1,52.9-258.8
		c4-8.2,14.9-19.9,23.9-25.4c15.2-9.7,36.8-12.1,300.6-31.4c297.6-21.6,307.7-23.3,334.4-47.2c14.1-13.1,150-277.6,155.5-302.5
		c7.1-34.7,3.7-43-91.2-199.2c-218.7-360-214-352.1-214-372.1c-0.3-10.1,2.8-24.6,6.1-32.1c3.3-7.5,83.7-94.7,178.7-193.8
		c156.4-163.3,174.7-181,192.2-186.3c11.5-3.5,26.2-4.2,34.7-2.2c8.7,2.5,126.6,64.8,263.2,139.1
		c136.5,74.3,255.9,136.6,266.1,138.2c36.1,7.2,44.4,3.7,189.6-78.5c75-42.3,140.4-81.3,144.8-86.8c23.6-28.1,24.1-32.4,32-332.4
		c7.6-282.7,8-290.3,19.8-309.7c6.8-11.4,18.5-23.3,27.3-27.8c36.5-19,282.6-77,442.6-104.3c72.5-12.3,89.6-9.6,111.3,18.7
		c6.9,9.1,73.6,127.4,147.8,262.9c89.1,161.7,139.8,250.5,147.5,257.4c24.6,21.3,38.9,24,183.8,33.9
		c156.4,11.1,175.4,9.5,201.4-16.6c6.4-6.6,80.9-113.4,165-237.5c84.5-124.3,158.2-230.8,164.1-237.3c7.7-8.4,17-13.1,33.5-16.7
		c22.1-5.3,27.8-3.3,178.1,51.9c305.2,112.3,334.2,123.5,345.8,132.5c6.5,4.5,15.6,17.6,19.9,28.8c7.8,18.1,6.8,45.4-11.5,309.5
		c-11,159.6-19.1,296.9-17.4,305.2c4.7,30.7,20,46,116.6,119c51.7,38.7,99.6,73.9,106.3,77.4c19.9,12.1,48.9,15.4,72.6,7.7
		c11.5-3.5,134.9-54.9,273.6-114.3l252-107.3l20.8,2.5c11.2,1.7,24.9,5.5,30.6,8.8c8,5,278.4,359,326,426.9
		c17.8,24.8,18.9,50.1,3.9,78.8c-5.8,11.5-87.2,123.2-180.7,248.4c-168,224.5-169.9,227.4-173.4,254.1l-3.5,26.6l32.9,90
		c43.2,117.6,45.7,122.8,68.4,141c18.3,14.4,29.8,17,304.6,64.2c157.5,27,289.9,51,294.6,52.8c11.8,5.2,34,29.2,37.5,40.7
		c5.4,17.9,47.2,551.6,44.4,566.9c-1.6,8.4-8.3,21.6-15.4,30.3c-14.4,16.9,3.5,10.1-419.7,168.9c-162.4,61-165.1,62.7-183,94.2
		c-13,23-45.8,190.6-41.8,214.5c1.8,12,7.8,25.5,14.3,34.7c6.3,8.3,106.4,102.1,222.3,208.2c202,184.2,211.3,193.4,217.5,213.8
		c3.1,11.6,4.8,26.4,3.6,33.3c-2.3,12.3-247.5,486.3-263.1,508.3c-4.8,7-16.4,14.8-31.1,20.1l-23.7,9.1l-280.6-60.3
		c-154.2-33.1-289-60.5-299.4-61.1c-32.5-1.3-49.7,10.9-115.4,79.3c-66.4,69-73,78-78,106c-4.6,24.6-5.9,19,76.3,326.1
		c67.8,253.8,70.1,262.8,66.4,284.4c-6,36.7,22.2,17.9-380.6,253.3c-68,39.3-127.9,73.3-133,74.8
		C10632.2,9969.4,10621.6,9969.8,10613.4,9969.1z M10106.7,8890.7c112.4-50.9,202.9-102.1,293.6-166.4
		c482.2-340,752.3-926.2,696.3-1510c-12.3-127.9-24.4-187.4-67-327.5c-39.7-132.1-51.6-163.8-101.3-264.5
		c-233-472.8-690.8-811.7-1214.2-898.2c-198.3-32.7-360.9-32.2-578.1,2.7c-67.9,10.9-304.9,84.8-374,116
		c-356.7,163.7-631.9,424.1-805.3,762.3c-247.8,483.6-245.8,1045.7,5.5,1532.9c165.3,320.4,448.1,588.4,781.2,740.5
		c328.7,149.8,686.3,189.5,1043.7,115.3C9853.1,8980.4,10046.6,8917.8,10106.7,8890.7z"/>
</g>
<g id="mobility_2_" class="st4">
	<linearGradient id="SVGID_1_" gradientUnits="userSpaceOnUse" x1="490" y1="802.8359" x2="964.6332" y2="802.8359">
		<stop  offset="0" style="stop-color:#FA5897"/>
		<stop  offset="0.269" style="stop-color:#F9578E"/>
		<stop  offset="0.7146" style="stop-color:#F55574"/>
		<stop  offset="0.9944" style="stop-color:#F35461"/>
	</linearGradient>
	<path class="st7" d="M501.6,794.2l173.2-134.9c0,0,20.5-20.5,20.5,1.7c0,22.3,0,76,0,76s13.9,0,35.1,0c61,0,171.8,0,216.9,0
		c0,0,12.3-3,12.3,14.5c0,17.5,0,94.5,0,107c0,12.5-10.3,12.2-10.3,12.2c-43.9,0-158.5,0-217.4,0c-19.1,0-31.5,0-31.5,0
		s0,43.1,0,70.2c0,27-21.5,6.7-21.5,6.7S517.1,832.9,500.1,816.9C487.8,805.2,501.6,794.2,501.6,794.2z"/>
</g>
<g id="mobility_3_" class="st4">
	<linearGradient id="SVGID_2_" gradientUnits="userSpaceOnUse" x1="940.4007" y1="280.4999" x2="1416" y2="280.4999">
		<stop  offset="0" style="stop-color:#FA5897"/>
		<stop  offset="0.269" style="stop-color:#F9578E"/>
		<stop  offset="0.7146" style="stop-color:#F55574"/>
		<stop  offset="0.9944" style="stop-color:#F35461"/>
	</linearGradient>
	<path class="st8" d="M1404.4,290l-173.5,148.5c0,0-20.6,22.5-20.6-1.9c0-24.5,0-83.7,0-83.7s-13.9,0-35.2,0
		c-61.1,0-172.2,0-217.3,0c0,0-12.3,3.3-12.3-15.9c0-19.3,0-104,0-117.8c0-13.8,10.3-13.5,10.3-13.5c44,0,158.8,0,217.8,0
		c19.2,0,31.6,0,31.6,0s0-47.4,0-77.3c0-29.8,21.6-7.3,21.6-7.3s162.2,126.4,179.2,143.9C1418.2,277.9,1404.4,290,1404.4,290z"/>
</g>
<g>
	<path class="st9" d="M1078.1,557.5l-351.3-63.8c-2.6-0.5-4.8-2.1-4.8-4.8l0-232.9c0-2.6,2.2-4.3,4.8-4.8l351.3-64.2
		c2.6-0.5,4.8,2.1,4.8,4.8l0,360.9C1082.9,555.3,1080.7,558,1078.1,557.5L1078.1,557.5z M1304.4,525.5l-47.8,8l0-322.2l47.8,8.1
		c1.8,0.3,3.3,1.5,3.3,3.3v299.6C1307.7,524.1,1306.3,525.2,1304.4,525.5L1304.4,525.5z M1238.1,536.6l-54.5,9.1V198.9l54.5,9.2
		V536.6L1238.1,536.6z M1165.1,548.8l-62.5,10.4c-1.8,0.3-3.3-1.5-3.3-3.3V188.3c0-1.8,1.5-3.6,3.3-3.3l62.5,10.6v351.9V548.8
		L1165.1,548.8z M738.8,472.4l0-200.5h6.2l0,200.5H738.8L738.8,472.4z M1033,512.3l0-286.3h18.5l0,292L1033,512.3L1033,512.3z
		 M982.2,507.6v-274h17l0,276.2L982.2,507.6L982.2,507.6z M936.8,500.3l0-259l15.4,0l0,261.9L936.8,500.3L936.8,500.3z M896.3,493.9
		V246.9l13.9,0v250.3L896.3,493.9L896.3,493.9z M858.9,487.9V253.7h12.4v236.8L858.9,487.9L858.9,487.9z M824.5,483.6l0-224.6h10.8
		l0,227.1L824.5,483.6L824.5,483.6z M793.6,478V263.8h9.3l0,217L793.6,478L793.6,478z M764.8,473.1l0-204.8h7.7v208.4L764.8,473.1
		L764.8,473.1z"/>
</g>
<g>
	<path class="st9" d="M826.6,538.7l351.3,63.8c2.6,0.5,4.8,2.1,4.8,4.8v232.9c0,2.6-2.2,4.3-4.8,4.8l-351.3,64.2
		c-2.6,0.5-4.8-2.1-4.8-4.8V543.5C821.9,540.8,824.1,538.2,826.6,538.7L826.6,538.7z M600.3,570.6l47.8-8v322.2l-47.8-8.1
		c-1.8-0.3-3.3-1.5-3.3-3.3V573.9C597,572.1,598.5,571,600.3,570.6L600.3,570.6z M666.6,559.6l54.5-9.1v346.8l-54.5-9.2V559.6
		L666.6,559.6z M739.7,547.4l62.5-10.4c1.8-0.3,3.3,1.5,3.3,3.3v367.5c0,1.8-1.5,3.6-3.3,3.3l-62.5-10.6V548.7V547.4L739.7,547.4z
		 M1165.9,623.7v200.5h-6.2V623.7H1165.9L1165.9,623.7z M871.7,583.8v286.3h-18.5v-292L871.7,583.8L871.7,583.8z M922.5,588.6v274
		h-17V586.4L922.5,588.6L922.5,588.6z M967.9,595.9v259h-15.4V593L967.9,595.9L967.9,595.9z M1008.5,602.2v247.1h-13.9V599
		L1008.5,602.2L1008.5,602.2z M1045.8,608.2v234.2h-12.4V605.7L1045.8,608.2L1045.8,608.2z M1080.3,612.6v224.6h-10.8V610.1
		L1080.3,612.6L1080.3,612.6z M1111.2,618.2v214.1h-9.3v-217L1111.2,618.2L1111.2,618.2z M1140,623.1v204.8h-7.7V619.5L1140,623.1
		L1140,623.1z"/>
</g>
</svg>
