<?xml version="1.0" encoding="iso-8859-1"?>
<!-- Generator: Adobe Illustrator 19.0.0, SVG Export Plug-In . SVG Version: 6.00 Build 0)  -->
<svg version="1.1" id="Capa_1" xmlns="http://www.w3.org/2000/svg" xmlns:xlink="http://www.w3.org/1999/xlink" x="0px" y="0px"
	 viewBox="0 0 59 59" fill="#6A0D22" xml:space="preserve">
<g>
	<g>
		<path d="M43.879,5c0-0.48-0.341-0.893-0.813-0.982l-21-4c-0.294-0.055-0.596,0.022-0.825,0.212S20.879,0.702,20.879,1v2h-12
			c-0.553,0-1,0.448-1,1v50h-5v2h6h12v2c0,0.29,0.126,0.565,0.345,0.755C21.406,58.914,21.639,59,21.879,59
			c0.047,0,0.095-0.003,0.142-0.01L42.949,56h7.93v-2h-7V5z M9.879,54V5h11v49H9.879z M41.879,54.132l-19,2.714V55V4V2.208l19,3.619
			V54.132z"/>
		<rect x="24.879" y="28" width="3" height="2"/>
		<path d="M55.828,35.293c-0.391-0.391-1.023-0.391-1.414,0l-2.535,2.536V22.867h-2v14.961l-2.535-2.535
			c-0.391-0.391-1.023-0.391-1.414,0s-0.391,1.023,0,1.414l4.242,4.243c0.188,0.188,0.441,0.293,0.707,0.293s0.52-0.105,0.707-0.293
			l4.242-4.243C56.219,36.316,56.219,35.683,55.828,35.293z"/>
	</g>
</g>
<g>
</g>
<g>
</g>
<g>
</g>
<g>
</g>
<g>
</g>
<g>
</g>
<g>
</g>
<g>
</g>
<g>
</g>
<g>
</g>
<g>
</g>
<g>
</g>
<g>
</g>
<g>
</g>
<g>
</g>
</svg>
