<?xml version="1.0" standalone="no"?>
<!DOCTYPE svg PUBLIC "-//W3C//DTD SVG 20010904//EN"
 "http://www.w3.org/TR/2001/REC-SVG-20010904/DTD/svg10.dtd">
<svg version="1.0" xmlns="http://www.w3.org/2000/svg"
 width="1280.000000pt" height="1132.000000pt" viewBox="0 0 1280.000000 1132.000000"
 preserveAspectRatio="xMidYMid meet">
<metadata>
Created by potrace 1.15, written by Peter Selinger 2001-2017
</metadata>
<g transform="translate(0.000000,1132.000000) scale(0.100000,-0.100000)"
   fill="#6A0D22" stroke="none">
<path d="M0 10795 l0 -235 290 0 290 0 0 -4915 0 -4915 -290 0 -290 0 0 -230
0 -230 6400 0 6400 0 0 230 0 230 -265 0 -265 0 0 4915 0 4915 265 0 265 0 0
235 0 235 -6400 0 -6400 0 0 -235z m1978 -5147 l-3 -4913 -432 -3 -433 -2 0
4915 0 4915 435 0 435 0 -2 -4912z m1392 -3 l0 -4915 -432 2 -433 3 -3 4913
-2 4912 435 0 435 0 0 -4915z m1398 3 l-3 -4913 -432 -3 -433 -2 0 4915 0
4915 435 0 435 0 -2 -4912z m1392 -3 l0 -4915 -432 2 -433 3 -3 4913 -2 4912
435 0 435 0 0 -4915z m1398 3 l-3 -4913 -432 -3 -433 -2 0 4915 0 4915 435 0
435 0 -2 -4912z m1392 -3 l0 -4915 -432 2 -433 3 -3 4913 -2 4912 435 0 435 0
0 -4915z m1398 3 l-3 -4913 -432 -3 -433 -2 0 4915 0 4915 435 0 435 0 -2
-4912z m1392 -3 l0 -4915 -432 2 -433 3 -3 4913 -2 4912 435 0 435 0 0 -4915z"/>
</g>
</svg>
