<?xml version="1.0" encoding="iso-8859-1"?>
<!-- Generator: Adobe Illustrator 16.0.0, SVG Export Plug-In . SVG Version: 6.00 Build 0)  -->
<!DOCTYPE svg PUBLIC "-//W3C//DTD SVG 1.1//EN" "http://www.w3.org/Graphics/SVG/1.1/DTD/svg11.dtd">
<svg version="1.1" id="Capa_1" xmlns="http://www.w3.org/2000/svg" xmlns:xlink="http://www.w3.org/1999/xlink" x="0px" y="0px"
	 width="261.011px" height="261.011px" viewBox="0 0 261.011 261.011" fill="#6A0D22"
	 xml:space="preserve">
<g>
	<path d="M240.77,22.514C227.71,9.454,210.35,2.267,191.891,2.267c-18.466,0-35.823,7.193-48.879,20.247
		c-13.054,13.054-20.247,30.415-20.247,48.879s7.189,35.823,20.247,48.877c13.056,13.059,30.416,20.246,48.879,20.246
		c18.462,0,35.823-7.193,48.879-20.246c13.052-13.054,20.241-30.413,20.241-48.877S253.825,35.568,240.77,22.514z M235.813,115.314
		c-11.734,11.736-27.332,18.192-43.923,18.192c-16.595,0-32.192-6.459-43.924-18.192c-11.734-11.736-18.193-27.333-18.193-43.921
		c0-16.594,6.462-32.194,18.193-43.923c11.735-11.736,27.329-18.194,43.924-18.194c16.591,0,32.188,6.461,43.923,18.194
		c11.731,11.732,18.189,27.329,18.189,43.923C254.003,87.985,247.545,103.587,235.813,115.314z"/>
	<path d="M191.891,51.772c-5.239,0-10.167,2.043-13.877,5.751c-3.706,3.706-5.746,8.63-5.749,13.874
		c0,5.239,2.043,10.166,5.749,13.873c3.706,3.707,8.634,5.746,13.873,5.746c5.243,0,10.171-2.04,13.877-5.746
		c3.706-3.708,5.746-8.634,5.746-13.873c0-5.243-2.04-10.171-5.746-13.874C202.058,53.815,197.13,51.772,191.891,51.772z
		 M200.809,80.311c-4.761,4.758-13.069,4.765-17.84,0c-2.382-2.383-3.696-5.551-3.696-8.918c0-3.368,1.314-6.537,3.696-8.918
		c2.386-2.383,5.555-3.697,8.922-3.697s6.536,1.314,8.918,3.697c2.382,2.382,3.692,5.547,3.692,8.918
		C204.498,74.76,203.187,77.928,200.809,80.311z"/>
	<path d="M166.084,141.72c-1.369-1.369-3.583-1.369-4.955,0l-0.479,0.479c-8.586-3.792-16.563-9.186-23.473-16.098
		c-30.165-30.165-30.165-79.249,0-109.421c1.372-1.369,1.372-3.585,0-4.956c-1.369-1.369-3.583-1.369-4.955,0
		c-22.273,22.275-29.415,54.001-21.527,82.387l-2.753,2.755L54.823,43.747c-0.34-0.341-0.732-0.592-1.146-0.765l4.356-4.354
		c1.371-1.371,1.371-3.584,0-4.956c-1.371-1.37-3.585-1.37-4.956,0L21.435,65.315c-1.371,1.37-1.371,3.586,0,4.955
		c0.683,0.685,1.579,1.026,2.478,1.026c0.896,0,1.793-0.342,2.478-1.026l4.089-4.086c0.171,0.421,0.426,0.811,0.76,1.143
		l53.119,53.123l-48.995,48.997c-10.714,10.719-13.669,26.255-8.956,39.677l-16.368,16.371c-1.371,1.369-1.371,3.587,0,4.956
		l6.651,6.652l-15.662,15.66c-1.371,1.368-1.371,3.582,0,4.955c0.685,0.681,1.581,1.026,2.478,1.026
		c0.896,0,1.795-0.346,2.478-1.026l15.662-15.663l6.651,6.649c0.683,0.684,1.579,1.026,2.478,1.026c0.896,0,1.793-0.343,2.478-1.026
		l16.333-16.331c4.048,1.431,8.345,2.225,12.766,2.225c10.195,0,19.782-3.97,26.987-11.177l72.989-72.988
		c9.432,3.539,19.435,5.373,29.53,5.373c10.681,0,21.467-2.033,31.774-6.215c1.797-0.729,2.659-2.771,1.934-4.565
		c-0.732-1.8-2.782-2.648-4.568-1.93c-17.624,7.146-36.737,7.412-53.975,1.554C167.162,143.609,166.888,142.521,166.084,141.72z
		 M89.311,115.494L38.672,64.85l13.673-13.67l50.645,50.643l-1.977,1.978L89.311,115.494z M30.777,241.277L17.47,227.972
		l12.091-12.09c1.591,2.687,3.494,5.232,5.799,7.539c2.272,2.269,4.798,4.175,7.486,5.779L30.777,241.277z M84.385,218.466
		c-5.888,5.886-13.709,9.123-22.032,9.123c-4.26,0-8.389-0.862-12.195-2.481c-0.066-0.03-0.123-0.064-0.191-0.085
		c-3.554-1.54-6.827-3.737-9.649-6.557c-12.149-12.149-12.149-31.916,0-44.064l67.973-67.969l2.128-2.129l0,0l2.736-2.736
		c4.103,10.75,10.415,20.842,19.062,29.496c6.876,6.875,14.723,12.36,23.154,16.42L84.385,218.466z"/>
	<path d="M85.692,151.309c-0.638-1.823-2.628-2.792-4.461-2.152c-1.826,0.64-2.792,2.632-2.156,4.459l13.221,38.007
		c0.505,1.444,1.858,2.351,3.31,2.351c0.381,0,0.77-0.064,1.151-0.194c1.826-0.641,2.794-2.636,2.156-4.463L85.692,151.309z"/>
	<path d="M70.007,166.999c-0.635-1.83-2.642-2.803-4.458-2.159c-1.829,0.637-2.796,2.636-2.159,4.459l13.218,38.007
		c0.504,1.447,1.858,2.357,3.309,2.357c0.381,0,0.77-0.064,1.15-0.198c1.829-0.636,2.796-2.632,2.157-4.455L70.007,166.999z"/>
	<path d="M56.28,180.723c-0.638-1.824-2.628-2.793-4.46-2.153c-1.826,0.637-2.792,2.629-2.156,4.46l13.222,38.003
		c0.505,1.443,1.858,2.354,3.309,2.354c0.382,0,0.77-0.065,1.153-0.198c1.826-0.637,2.792-2.632,2.154-4.463L56.28,180.723z"/>
</g>
<g>
</g>
<g>
</g>
<g>
</g>
<g>
</g>
<g>
</g>
<g>
</g>
<g>
</g>
<g>
</g>
<g>
</g>
<g>
</g>
<g>
</g>
<g>
</g>
<g>
</g>
<g>
</g>
<g>
</g>
</svg>
