<?xml version="1.0" encoding="iso-8859-1"?>
<!-- Generator: Adobe Illustrator 19.0.0, SVG Export Plug-In . SVG Version: 6.00 Build 0)  -->
<svg version="1.1" id="Layer_1" xmlns="http://www.w3.org/2000/svg" xmlns:xlink="http://www.w3.org/1999/xlink" x="0px" y="0px"
	 viewBox="0 0 512 512" fill="#6A0D22" xml:space="preserve">
<g>
	<g>
		<path d="M466.833,151.101c3.332-3.332,3.332-8.735,0-12.068c-3.332-3.333-8.735-3.333-12.068,0l-17.067,17.067
			c-0.466,0.466-0.859,0.975-1.195,1.51l-13.847-13.847c0.535-0.336,1.044-0.729,1.51-1.195l17.067-17.067
			c3.332-3.333,3.332-8.736,0-12.068s-8.735-3.332-12.068,0l-17.067,17.067c-0.466,0.466-0.859,0.975-1.195,1.51l-13.847-13.847
			c0.535-0.336,1.044-0.729,1.51-1.195l17.067-17.067c3.332-3.332,3.332-8.735,0-12.068c-3.333-3.332-8.736-3.332-12.068,0
			l-17.067,17.067c-0.466,0.466-0.859,0.975-1.195,1.51l-13.847-13.847c0.535-0.336,1.044-0.729,1.51-1.195l17.067-17.067
			c3.332-3.332,3.332-8.735,0-12.068c-3.332-3.332-8.735-3.332-12.068,0l-17.067,17.067c-0.466,0.466-0.859,0.975-1.195,1.51
			l-13.847-13.847c0.535-0.336,1.044-0.729,1.51-1.195l17.067-17.067c3.332-3.332,3.332-8.735,0-12.068
			c-3.333-3.332-8.735-3.332-12.068,0l-17.067,17.067c-0.466,0.466-0.859,0.975-1.195,1.51l-0.146-0.146
			c-7.104-7.104-18.634-7.104-25.738,0L285.683,77.6c-7.104,7.104-7.104,18.634,0,25.738l11.265,11.265l-83.617,83.624v-61.695
			h15.935c10.055,0,18.202-8.147,18.202-18.202V86.468c0-10.055-8.147-18.202-18.202-18.202h-15.933V18.202
			C213.333,8.147,205.186,0,195.131,0H95.001C84.946,0,76.799,8.147,76.799,18.202v50.065h-15.93
			c-10.055,0-18.202,8.147-18.202,18.202v31.863c0,10.055,8.147,18.202,18.202,18.202h15.928v238.933H60.869
			c-10.055,0-18.202,8.147-18.202,18.202v31.863c0,10.055,8.147,18.202,18.202,18.202h15.932v50.065
			c0,10.055,8.147,18.202,18.202,18.202h100.13c10.055,0,18.202-8.147,18.202-18.202v-50.065h15.932
			c10.055,0,18.202-8.147,18.202-18.202v-31.863c0-10.055-8.147-18.202-18.202-18.202h-3.568l167.733-164.38l11.326,11.326
			c7.103,7.103,18.628,7.103,25.74,0.007l22.535-22.535c7.113-7.113,7.113-18.634,0-25.747l-4.776-4.776
			c0.535-0.336,1.044-0.729,1.51-1.195L466.833,151.101z M93.866,18.202c0-0.629,0.506-1.135,1.135-1.135h100.13
			c0.629,0,1.135,0.506,1.135,1.135v50.065h-102.4V18.202z M59.734,118.332V86.468c0-0.629,0.506-1.135,1.135-1.135h24.463h119.467
			h24.467c0.629,0,1.135,0.506,1.135,1.135v31.863c0,0.629-0.506,1.135-1.135,1.135h-24.469H85.331H60.869
			C60.24,119.467,59.734,118.961,59.734,118.332z M93.864,136.533h102.4v238.933h-102.4V136.533z M196.268,493.798
			c0,0.629-0.506,1.135-1.135,1.135H95.002c-0.629,0-1.135-0.506-1.135-1.135v-50.065h102.4V493.798z M230.401,393.668v31.863
			c0,0.629-0.506,1.135-1.135,1.135h-24.465H85.334H60.869c-0.629,0-1.135-0.506-1.135-1.135v-31.863
			c0-0.629,0.506-1.135,1.135-1.135h24.462h119.387c0.156,0.003,0.311,0.006,0.468,0h24.08
			C229.895,392.533,230.401,393.039,230.401,393.668z M381.359,199.021L213.333,363.689V222.363l95.684-95.691l10.68,10.68
			L381.359,199.021z M440.964,187.817l-22.528,22.528c-0.441,0.44-1.171,0.44-1.611,0l-84.88-84.88l-16.894-16.896
			c-0.006-0.006-0.012-0.01-0.018-0.016l-17.282-17.282c-0.439-0.439-0.439-1.163,0-1.602l22.537-22.537
			c0.439-0.439,1.163-0.439,1.602,0l119.074,119.074C441.412,186.654,441.412,187.369,440.964,187.817z"/>
	</g>
</g>
<g>
</g>
<g>
</g>
<g>
</g>
<g>
</g>
<g>
</g>
<g>
</g>
<g>
</g>
<g>
</g>
<g>
</g>
<g>
</g>
<g>
</g>
<g>
</g>
<g>
</g>
<g>
</g>
<g>
</g>
</svg>
