<?xml version="1.0" encoding="utf-8"?>
<!-- Generator: Adobe Illustrator 25.0.0, SVG Export Plug-In . SVG Version: 6.00 Build 0)  -->
<svg version="1.1" id="Layer_1" xmlns="http://www.w3.org/2000/svg" xmlns:xlink="http://www.w3.org/1999/xlink" x="0px" y="0px"
	 viewBox="0 0 512 512" fill="#6A0D22" xml:space="preserve">
<style type="text/css">
	.st0{fill-opacity:0;}
	.st1{stroke:#050505;stroke-width:5;stroke-miterlimit:10;}
	.st2{fill:#FFFFFF;}
</style>
<g>
	<g>
		<path d="M483.3,39.2H28.7C12.9,39.2,0,52.1,0,67.9v303c0,15.8,12.9,28.7,28.7,28.7h169.9l-9.6,33.4H174
			c-10.9,0-19.9,8.9-19.9,19.9s8.9,19.9,19.9,19.9h164c10.9,0,19.9-8.9,19.9-19.9s-8.9-19.9-19.9-19.9H323l-9.6-33.4h169.9
			c15.8,0,28.7-12.9,28.7-28.7v-303C512,52.1,499.1,39.2,483.3,39.2z M338,448.8c2.3,0,4.2,1.9,4.2,4.2s-1.9,4.2-4.2,4.2H174
			c-2.3,0-4.2-1.9-4.2-4.2s1.9-4.2,4.2-4.2H338z M205.3,433.1l9.6-33.4h82.2l9.6,33.4H205.3z M496.3,370.9c0,7.2-5.9,13.1-13.1,13.1
			H28.7c-7.2,0-13.1-5.9-13.1-13.1v-39.2h480.7L496.3,370.9L496.3,370.9z M496.3,316.1H15.7V67.9c0-7.2,5.9-13.1,13.1-13.1h454.5
			c7.2,0,13.1,5.9,13.1,13.1L496.3,316.1L496.3,316.1z"/>
	</g>
</g>
<g>
	<g>
		<path d="M26.1,65.3v241.4h459.8V65.3H26.1z M470.2,291H41.8V81h428.4L470.2,291L470.2,291z"/>
	</g>
</g>
<g>
	<g>
		<circle cx="256" cy="357.9" r="13.1"/>
	</g>
</g>
<rect x="222" y="169" class="st0" width="36" height="36"/>
<rect x="229" y="161" class="st0" width="36" height="36"/>
<path class="st1" d="M375.2,287.3H133.8c-45,0-81.8-36.8-81.8-81.8v-34.7c0-45,36.8-81.8,81.8-81.8h241.4c45,0,81.8,36.8,81.8,81.8
	v34.7C457,250.4,420.2,287.3,375.2,287.3z"/>
<g>
	<g>
		<path class="st2" d="M95.1,102.9h12.2V179H95.1V102.9z M100.7,102.9h37.6v13.8h-37.6V102.9z M130.4,102.9h12.2V179h-12.2V102.9z"
			/>
		<path class="st2" d="M166.6,176.3c-3.6-2.3-6.3-5.6-8.3-9.8c-2-4.2-2.9-9.2-2.9-14.7v-21.6c0-5.6,1-10.5,2.9-14.7
			c2-4.2,4.7-7.5,8.3-9.8c3.6-2.3,7.7-3.5,12.4-3.5s8.8,1.2,12.4,3.5c3.6,2.3,6.3,5.6,8.3,9.8c2,4.2,2.9,9.2,2.9,14.7v21.6
			c0,5.6-1,10.5-2.9,14.7c-2,4.2-4.7,7.5-8.3,9.8c-3.6,2.3-7.7,3.5-12.4,3.5S170.2,178.6,166.6,176.3z M184.7,163.8
			c1.7-1.1,2.9-2.7,3.8-4.7c0.9-2,1.4-4.4,1.4-7v-22.3c0-2.7-0.5-5-1.4-7c-0.9-2-2.2-3.6-3.8-4.7c-1.7-1.1-3.6-1.6-5.8-1.6
			c-2.2,0-4.1,0.5-5.8,1.6c-1.7,1.1-2.9,2.7-3.8,4.7c-0.9,2-1.4,4.4-1.4,7v22.3c0,2.7,0.5,5,1.4,7c0.9,2,2.2,3.6,3.8,4.7
			c1.7,1.1,3.6,1.6,5.8,1.6C181.2,165.4,183.1,164.9,184.7,163.8z"/>
		<path class="st2" d="M212.3,165.2h55V179h-55V165.2z M212.3,165.2H224v29.6h-11.7V165.2z M212.6,165.2h1.1c2.7,0,4.7-1.5,6.2-4.4
			c1.5-2.9,2.2-7,2.2-12.3v-45.6h12.2v43.4c0,6.3-0.7,11.7-2.2,16.1c-1.4,4.4-3.6,7.7-6.5,10.1c-2.9,2.3-6.6,3.5-11,3.5h-2V165.2z
			 M229,102.9h28.1v13.8H229V102.9z M251.9,102.9H264V179h-12.2V102.9z M259.3,165.2h11.8v29.6h-11.8V165.2z"/>
		<path class="st2" d="M300,102.9h7.7l24.7,76.1h-13.1l-15.4-52l-15.4,52h-13.1L300,102.9z M287.2,153h33.9v13.8h-33.9V153z"/>
		<path class="st2" d="M331.5,102.9h47.3v13.8h-47.3V102.9z M349.1,109.1h12.2V179h-12.2V109.1z"/>
		<path class="st2" d="M384.1,102.9h12.2V179h-12.2V102.9z M389.6,165.2H410c1.4,0,2.7-0.4,3.8-1.2c1.1-0.8,2-1.9,2.6-3.4
			c0.6-1.5,0.9-3.2,0.9-5.1c0-2-0.3-3.7-0.9-5.2c-0.6-1.5-1.5-2.6-2.6-3.4c-1.1-0.8-2.4-1.2-3.9-1.2h-20.4v-13.8h20.1
			c4,0,7.6,1,10.6,2.9c3.1,2,5.4,4.7,7.1,8.3c1.7,3.6,2.5,7.7,2.5,12.4c0,4.7-0.8,8.8-2.5,12.4c-1.7,3.6-4.1,6.3-7.1,8.2
			c-3.1,1.9-6.6,2.9-10.6,2.9h-20.1V165.2z"/>
		<path class="st2" d="M103.6,277.2c-3.3-1.7-5.9-4.2-7.8-7.5c-2-3.3-3.2-7.2-3.7-11.8h12.3c0.4,2.5,1.5,4.5,3.3,5.8
			c1.8,1.4,4.1,2.1,6.8,2.1c3,0,5.3-0.9,7-2.7c1.7-1.8,2.5-4.4,2.5-7.8v-0.1c0-2.9-0.6-5.1-1.9-6.6s-3-2.3-5.3-2.3h-10.3v-13.8h10.3
			c2,0,3.5-0.6,4.5-1.9c1.1-1.3,1.6-3.1,1.6-5.4v-0.5c0-2.8-0.7-4.9-2.1-6.4c-1.4-1.5-3.4-2.3-5.9-2.3c-2.4,0-4.4,0.7-6,2.2
			c-1.7,1.5-2.8,3.5-3.5,6.2H93.1c0.7-4.7,2.1-8.7,4-12.1s4.4-5.9,7.5-7.6c3-1.7,6.4-2.6,10.3-2.6c4.4,0,8.2,0.8,11.4,2.3
			c3.1,1.6,5.5,3.8,7.2,6.8c1.6,3,2.5,6.5,2.5,10.7v0.4c0,4-0.8,7.5-2.4,10.4c-1.6,3-3.8,5.1-6.7,6.5c3.3,0.9,5.8,3,7.5,6.2
			c1.8,3.2,2.7,7.3,2.7,12.3v0.1c0,4.6-0.9,8.6-2.6,11.9c-1.7,3.3-4.2,5.8-7.5,7.5c-3.3,1.7-7.3,2.6-11.9,2.6
			C110.6,279.8,106.8,278.9,103.6,277.2z"/>
		<path class="st2" d="M167.1,202.9h7.7l24.7,76.1h-13.1L171,227l-15.4,52h-13.1L167.1,202.9z M154.3,253h33.9v13.8h-33.9V253z"/>
		<path class="st2" d="M221.1,246.7l12.1,2.4L217.6,279h-13.8L221.1,246.7z M213.1,247c-2.8-2-5-4.7-6.6-8.3
			c-1.6-3.6-2.4-7.7-2.4-12.4c0-4.7,0.8-8.8,2.3-12.4c1.6-3.6,3.7-6.3,6.6-8.3c2.8-2,6.1-2.9,9.8-2.9h21.2v13.8h-19.8
			c-1.5,0-2.8,0.4-3.9,1.2c-1.1,0.8-2,1.9-2.6,3.4c-0.6,1.5-0.9,3.2-0.9,5.1c0,1.9,0.3,3.6,0.9,5.1c0.6,1.5,1.5,2.6,2.6,3.4
			c1.1,0.8,2.4,1.2,3.9,1.2h19.8v13.8h-21.2C219.2,249.9,216,249,213.1,247z M237.7,202.8h12.2V279h-12.2V202.8z"/>
		<path class="st2" d="M264,202.9h12.2V279H264V202.9z M269.4,265.2h20.6c2.8,0,4.9-0.8,6.5-2.4c1.5-1.6,2.3-3.8,2.3-6.7V256
			c0-1.9-0.3-3.6-1-4.9c-0.7-1.4-1.7-2.4-3-3.1c-1.3-0.7-2.9-1.1-4.7-1.1h-20.6V233h20.6c2.5,0,4.5-0.8,5.8-2.3
			c1.4-1.5,2.1-3.6,2.1-6.3c0-2.4-0.7-4.3-2.1-5.7s-3.3-2-5.8-2h-20.6v-13.8h21c4.2,0,7.7,0.8,10.7,2.4c3,1.6,5.2,4,6.7,7.1
			c1.5,3.1,2.3,6.8,2.3,11.1c0,3-0.5,5.6-1.5,7.9c-1,2.3-2.4,4.2-4.3,5.6c-1.9,1.5-4.2,2.5-6.8,3c2.8,0.5,5.3,1.5,7.3,3.1
			c2,1.6,3.6,3.7,4.6,6.2c1,2.5,1.6,5.5,1.6,8.8v0.2c0,4.4-0.8,8.1-2.3,11.2c-1.6,3.1-3.8,5.5-6.8,7.1s-6.5,2.4-10.7,2.4h-21.7
			V265.2z"/>
		<path class="st2" d="M322.7,202.9h12.2V279h-12.2V202.9z M327.9,234.3h22.8v13.8h-22.8V234.3z M340.6,245.5l11-5.5l22.2,39h-15.2
			L340.6,245.5z M340.6,237.2l16.5-34.3h14l-21.5,43.7L340.6,237.2z"/>
		<path class="st2" d="M375.6,202.9h13l18.9,54.5l-7.6,12.7L375.6,202.9z M410,263.2c-1.2,3.7-2.5,6.8-3.9,9.2
			c-1.5,2.4-3.2,4.3-5.2,5.5c-2,1.2-4.3,1.9-7,1.9h-7.5v-13.7h4.8c1.4,0,2.6-0.3,3.7-1c1.1-0.7,2-1.7,2.9-3s1.6-3,2.2-5.1l16.5-54.1
			h12.5L410,263.2z"/>
	</g>
</g>
<path d="M326.9,242c15.1,0,28.1,13.2,28.1,28.7v64c10.9-10.5,31.9-11.8,45.4,4c14.6-9.2,34-1.4,39.9,10.5
	c31.5-5.7,45.7,14.1,45.7,46.5c0,1.8-0.1,8.5-0.1,10.2c0.1,39.7-19.9,49.3-24.5,79.3c-1.2,7.5-7.6,13-15.2,13H336.3l0,0
	c-11.8,0-23-6.8-28.1-18.2c-8.3-18.5-31.4-61.1-49.5-68.9c-11.7-5-18.6-13.7-18.6-25.6c0-21.9,22.5-37,42.9-28.3
	c5.4,2.3,10.7,5.3,16,9.1v-95.6C298.8,255.7,312,242,326.9,242z M327.1,508.5h123c8.5,0,15.4,6.9,15.4,15.4v30.8
	c0,8.5-6.9,15.4-15.4,15.4h-123c-8.5,0-15.4-6.9-15.4-15.4v-30.8C311.8,515.4,318.6,508.5,327.1,508.5z M434.8,526.4
	c-7.1,0-12.8,5.7-12.8,12.8s5.7,12.8,12.8,12.8c7.1,0,12.8-5.7,12.8-12.8S441.8,526.4,434.8,526.4z"/>
</svg>
