<?xml version="1.0" encoding="utf-8"?>
<!-- Generator: Adobe Illustrator 25.0.0, SVG Export Plug-In . SVG Version: 6.00 Build 0)  -->
<svg version="1.1" id="Capa_1" xmlns="http://www.w3.org/2000/svg" xmlns:xlink="http://www.w3.org/1999/xlink" x="0px" y="0px"
	 viewBox="0 0 572.5 572.5" fill="#EA3A60" xml:space="preserve">

<g>
	<g>
		<path d="M284.7,85l-67.5,35.6c-1.1,0.6-2.2,0-2.2-1.2V95.3c0-1.2-0.6-1.7-1.8-1.7h-40.6c-1.2,0-2.7,0.5-2.7,1.7v47.9
			c0,1.2-0.7,2.7-1.8,3.3L0.7,235.3c-1.1,0.6-0.9,1.3,0.4,1.3h73.5c1.2,0,1.8,0.5,1.8,1.7v246.7c0,1.2,1.4,2.8,2.7,2.8h415.7
			c1.2,0,1.8-1.6,1.8-2.8V238.3c0-1.2,1.4-1.7,2.7-1.7h72.1c1.2,0,1.3-0.7,0.2-1.3l-283-150.2C287.6,84.5,285.8,84.4,284.7,85z
			 M156.3,223.1c9.5,0,17.2,7.7,17.2,17.2s-7.7,17.2-17.2,17.2c-9.5,0-17.2-7.7-17.2-17.2S146.8,223.1,156.3,223.1z M242.8,305
			l3.8-6.4v5.1c0.5-0.1,0.9-0.1,1.4-0.1l3-5v5.3c0.4,0.1,0.7,0.2,1.1,0.3l3.3-5.5v7.1c3.2,2.2,5.3,5.9,5.3,10
			c0,6.7-5.5,12.2-12.2,12.2s-12.2-5.5-12.2-12.2C236.3,311.1,239,307.1,242.8,305z M275.3,390.9c-3.2,0-5.9-2.5-5.9-5.7l0-35.7
			c0-0.3-0.3-0.6-0.6-0.6h-2.6c-0.3,0-0.6,0.3-0.6,0.6c0,0,0,100.5,0,100.5c0,4.2-3.3,7.6-7.5,7.6s-7.6-3.4-7.6-7.6
			c0-0.1,0-59.4,0-59.4c0-0.4-0.2-0.6-0.7-0.6h-2.5c-0.4,0-0.6,0.2-0.6,0.6c0,0,0,59.4,0,59.4c0,4.2-3.4,7.6-7.6,7.6
			s-7.6-3.4-7.6-7.6c0,0,0-100.5,0-100.5c0-0.3-0.3-0.6-0.6-0.6h-2.5c-0.3,0-0.6,0.3-0.6,0.6l0,35.7c0,3.2-2.7,5.7-5.9,5.7
			c-3.2,0-5.9-2.5-5.9-5.7c0,0,0-40.3,0-40.8c0-8,7.5-14.4,15.3-14.4c0.2,0,34.5,0,34.7,0c7.7,0,15.3,6.4,15.3,14.4
			c0,0.5,0,40.8,0,40.8C281.2,388.4,278.5,390.9,275.3,390.9z M416.2,223.1c9.5,0,17.2,7.7,17.2,17.2s-7.7,17.2-17.2,17.2
			s-17.2-7.7-17.2-17.2S406.7,223.1,416.2,223.1z M362.7,330c0,0,13.4-43.8,13.5-43.9c2.1-7.1,7-23.4,21.2-23.4h37.9
			c15.1,0,19.1,16.2,21.1,23.4c0,0,13.4,43.9,13.5,43.9c1.5,4.7-1.2,9.8-6,11.2c-4.7,1.5-9.8-1.2-11.2-5.9c0,0-13.4-43.8-13.4-43.8
			c-0.1-0.2-0.5-1-1.4-1c-0.1,0-1.9,0-1.9,0h0c-0.5,0-0.8,0.4-0.7,1l26.9,87.9c0.1,0.5,0,1.4-0.9,1.4h-18.8c-0.5,0-0.9,0.4-0.9,1
			c0,0,0,64,0,64.1c0,6.4-5.2,11.6-11.6,11.6s-11.6-5.2-11.6-11.6v-64.1c0-0.5-0.4-1-1-1h0h-1.9h0c-0.5,0-1,0.4-1,1l0,64.1
			c0,6.4-5.2,11.6-11.6,11.6s-11.6-5.2-11.6-11.6c0,0,0-64.1,0-64.1c0-0.5-0.4-1-0.9-1h-18.8c-0.9,0-1.1-0.9-0.9-1.4l26.9-87.9
			c0.1-0.5-0.2-1-0.7-1h0c0,0-1.8,0-1.9,0c-0.9,0-1.3,0.8-1.4,1c0,0-13.4,43.8-13.4,43.8c-1.5,4.7-6.5,7.4-11.2,5.9
			C363.9,339.8,361.2,334.8,362.7,330z M310,307.2c2.4-0.2,4.9,0.9,6.7,2.1c0.5,0.3,1.2,0.2,1.6-0.1c2.1-1.9,4.9-3,8-3
			c3.2,0,6.1,1.2,8.3,3.3c0.4,0.4,1.1,0.4,1.5,0.1c1.9-1.3,4.5-2.6,7.1-2.3c4.2,0.4,5.1,5.2,4,8.6c-0.2,0.5-0.6,1.4-0.8,1.9
			c-1.5,3.1-3,6.6-4,6.8c-1,0.1,2.1-7.3-0.1-9.7c-0.4-0.4-1.3-0.6-1.9-0.6c-0.4,0-0.9,0.1-1.5,0.3c-0.5,0.2-0.8,0.8-0.7,1.4
			c0.2,0.8,0.2,1.6,0.2,2.4c0,6.7-5.4,12.1-12.1,12.1c-6.7,0-12.1-5.4-12.1-12.1c0-0.9,0.1-1.8,0.3-2.7c0.1-0.5-0.2-1.2-0.7-1.3
			c-0.4-0.1-0.7-0.1-1-0.2c-0.6,0-1.5,0.1-1.9,0.6c-2.2,2.3,0.9,9.8-0.1,9.7c-1-0.1-2.5-3.7-4-6.8c-0.2-0.5-0.7-1.3-0.8-1.9
			C304.9,312.5,305.8,307.6,310,307.2z M290.3,376.2c0,0,8.6-27.9,8.6-28c1.3-4.5,6-14.9,15-14.9h24.6c9.7,0,13.5,10.4,14.9,14.9
			c0,0.1,0.1,0.2,0.1,0.4c3.5,11.3,8.5,27.7,8.5,27.7c0.9,3-0.8,6.2-3.8,7.2s-6.2-0.8-7.2-3.8l-8.5-27.7c0-0.1-0.3-0.6-0.9-0.6
			c-0.1,0-2.6,0-2.6,0c-0.3,0-0.5,0.3-0.4,0.6l17.1,56.2c0.1,0.3,0,0.9-0.6,0.9h-11.4c-0.3,0-0.6,0.3-0.6,0.6c0,0,0,40.6,0,40.6
			c0,4.1-3.3,7.4-7.4,7.4c-4.1,0-7.4-3.3-7.4-7.4v-40.6c0-0.3-0.4-0.6-0.6-0.6s-2.5,0-2.5,0c-0.3,0-0.6,0.3-0.6,0.6v40.6
			c0,4.1-3.3,7.4-7.4,7.4c-4.1,0-7.4-3.3-7.4-7.4c0,0,0-40.6,0-40.6c0-0.3-0.2-0.6-0.6-0.6h-11.9c-0.6,0-0.7-0.6-0.6-0.9l17.1-56.2
			c0.1-0.3-0.1-0.6-0.5-0.6c0,0-2.6,0-2.7,0c-0.6,0-0.9,0.5-0.9,0.6l-8.5,27.7c-0.9,3-4.1,4.7-7.2,3.8
			C291.1,382.4,289.4,379.2,290.3,376.2z"/>
	</g>
</g>
<path fill="#fff" d="M196.5,355.8c-4.9,0-8.9-3.7-8.9-8.6l0-53.8c0-0.5-0.4-0.9-0.9-0.9h-3.9c-0.5,0-0.9,0.4-0.9,0.9
	c0,0,0,151.3,0,151.3c0,6.3-5,11.4-11.3,11.4c-6.3,0-11.4-5.1-11.4-11.4c0-0.2,0-89.5,0-89.5c0-0.6-0.3-0.9-1-0.9h-3.8
	c-0.6,0-0.9,0.3-0.9,0.9c0,0,0,89.5,0,89.5c0,6.3-5.1,11.4-11.4,11.4s-11.4-5.1-11.4-11.4c0,0,0-151.3,0-151.3c0-0.5-0.5-0.9-1-0.9
	h-3.8c-0.5,0-0.9,0.4-0.9,0.9l0,53.8c0,4.9-4,8.6-8.9,8.6c-4.9,0-8.9-3.7-8.9-8.6c0,0,0-60.7,0-61.5c0-12.1,11.3-21.7,23-21.7
	c0.3,0,51.9,0,52.2,0c11.6,0,23,9.6,23,21.7c0,0.7,0,61.4,0,61.5C205.4,352.1,201.4,355.8,196.5,355.8z"/>
</svg>
