<?xml version="1.0" encoding="utf-8"?>
<!-- Generator: Adobe Illustrator 25.0.0, SVG Export Plug-In . SVG Version: 6.00 Build 0)  -->
<svg version="1.1" id="Layer_1" xmlns="http://www.w3.org/2000/svg" xmlns:xlink="http://www.w3.org/1999/xlink" x="0px" y="0px"
	 viewBox="0 0 122.9 78.5" fill="#EA3A60" xml:space="preserve">
<style type="text/css">
	.st0{fill-rule:evenodd;clip-rule:evenodd;}
	.st1{fill:#FFFFFF;}
</style>
<g>
	<path class="st0" d="M48.2,0.4l73.7,13.4c0.5,0.1,1,0.4,1,1v48.8c0,0.6-0.5,0.9-1,1L48.2,78.1c-0.5,0.1-1-0.4-1-1V1.4
		C47.2,0.8,47.6,0.3,48.2,0.4L48.2,0.4z M0.7,7.1l10-1.7V73l-10-1.7C0.3,71.2,0,71,0,70.6V7.8C0,7.4,0.3,7.1,0.7,7.1L0.7,7.1z
		 M14.6,4.7L26,2.8v72.8l-11.4-1.9V4.7L14.6,4.7z M29.9,2.2L43,0c0.4-0.1,0.7,0.3,0.7,0.7v77.1c0,0.4-0.3,0.8-0.7,0.7l-13.1-2.2V2.5
		V2.2L29.9,2.2z M119.3,18.2v42H118v-42H119.3L119.3,18.2z M57.6,9.8v60.1h-3.9V8.6L57.6,9.8L57.6,9.8z M68.3,10.8v57.5h-3.6V10.4
		L68.3,10.8L68.3,10.8z M77.8,12.4v54.3h-3.2V11.8L77.8,12.4L77.8,12.4z M86.3,13.7v51.8h-2.9V13L86.3,13.7L86.3,13.7z M94.2,14.9
		v49.1h-2.6V14.4L94.2,14.9L94.2,14.9z M101.4,15.9V63h-2.3V15.3L101.4,15.9L101.4,15.9z M107.9,17V62h-1.9V16.4L107.9,17L107.9,17z
		 M113.9,18.1v43h-1.6V17.3L113.9,18.1L113.9,18.1z"/>
</g>
<rect x="104.6" y="0.3" class="st1" width="26.6" height="84.8"/>
</svg>
