<?xml version="1.0" encoding="utf-8"?>
<!-- Generator: Adobe Illustrator 25.0.0, SVG Export Plug-In . SVG Version: 6.00 Build 0)  -->
<svg version="1.1" id="Capa_1" xmlns="http://www.w3.org/2000/svg" xmlns:xlink="http://www.w3.org/1999/xlink" x="0px" y="0px"
	 viewBox="0 0 572.5 572.5" fill="#EA3A60" xml:space="preserve">
<style type="text/css">
	.st0{fill:#FFFFFF;}
</style>
<g>
	<g>
		<path d="M284.7,85l-67.5,35.6c-1.1,0.6-2.2,0-2.2-1.2V95.3c0-1.2-0.6-1.7-1.8-1.7h-40.6c-1.2,0-2.7,0.5-2.7,1.7v47.9
			c0,1.2-0.7,2.7-1.8,3.3L0.7,235.3c-1.1,0.6-0.9,1.3,0.4,1.3h73.5c1.2,0,1.8,0.5,1.8,1.7v246.7c0,1.2,1.4,2.8,2.7,2.8h415.7
			c1.2,0,1.8-1.6,1.8-2.8V238.3c0-1.2,1.4-1.7,2.7-1.7h72.1c1.2,0,1.3-0.7,0.2-1.3l-283-150.2C287.6,84.5,285.8,84.4,284.7,85z
			 M286.2,223.1c9.5,0,17.2,7.7,17.2,17.2s-7.7,17.2-17.2,17.2c-9.5,0-17.2-7.7-17.2-17.2S276.7,223.1,286.2,223.1z"/>
	</g>
</g>
<path class="st0" d="M326.5,355.8c-4.9,0-8.9-3.7-8.9-8.6l0-53.8c0-0.5-0.4-0.9-0.9-0.9h-3.9c-0.5,0-0.9,0.4-0.9,0.9
	c0,0,0,151.3,0,151.3c0,6.3-5,11.4-11.3,11.4c-6.3,0-11.4-5.1-11.4-11.4c0-0.2,0-89.5,0-89.5c0-0.6-0.3-0.9-1-0.9h-3.8
	c-0.6,0-0.9,0.3-0.9,0.9c0,0,0,89.5,0,89.5c0,6.3-5.1,11.4-11.4,11.4c-6.3,0-11.4-5.1-11.4-11.4c0,0,0-151.3,0-151.3
	c0-0.5-0.5-0.9-1-0.9h-3.8c-0.5,0-0.9,0.4-0.9,0.9l0,53.8c0,4.9-4,8.6-8.9,8.6c-4.9,0-8.9-3.7-8.9-8.6c0,0,0-60.7,0-61.5
	c0-12.1,11.3-21.7,23-21.7c0.3,0,51.9,0,52.2,0c11.6,0,23,9.6,23,21.7c0,0.7,0,61.4,0,61.5C335.3,352.1,331.4,355.8,326.5,355.8z"/>
</svg>
