<?xml version="1.0" encoding="utf-8"?>
<!-- Generator: Adobe Illustrator 25.0.0, SVG Export Plug-In . SVG Version: 6.00 Build 0)  -->
<svg version="1.1" id="Capa_1" xmlns="http://www.w3.org/2000/svg" xmlns:xlink="http://www.w3.org/1999/xlink" x="0px" y="0px"
	 viewBox="0 0 572.5 572.5" fill="#EA3A60" xml:space="preserve">
<g>
	<g>
		<path d="M284.7,85l-67.5,35.6c-1.1,0.6-2.2,0-2.2-1.2V95.3c0-1.2-0.6-1.7-1.8-1.7h-40.6c-1.2,0-2.7,0.5-2.7,1.7v47.9
			c0,1.2-0.7,2.7-1.8,3.3L0.7,235.3c-1.1,0.6-0.9,1.3,0.4,1.3h73.5c1.2,0,1.8,0.5,1.8,1.7v246.7c0,1.2,1.4,2.8,2.7,2.8h415.7
			c1.2,0,1.8-1.6,1.8-2.8V238.3c0-1.2,1.4-1.7,2.7-1.7h72.1c1.2,0,1.3-0.7,0.2-1.3l-283-150.2C287.6,84.5,285.8,84.4,284.7,85z
			 M236.5,223.1c9.5,0,17.2,7.7,17.2,17.2s-7.7,17.2-17.2,17.2c-9.5,0-17.2-7.7-17.2-17.2S226.9,223.1,236.5,223.1z M277.3,355.8
			c-5,0-9-3.8-9-8.7l0-54.5c0-0.5-0.4-0.9-0.9-0.9h-3.9c-0.5,0-0.9,0.4-0.9,0.9c0,0,0,153.4,0,153.4c0,6.4-5.1,11.6-11.5,11.6
			s-11.6-5.1-11.6-11.5c0-0.2,0-90.7,0-90.7c0-0.7-0.3-0.9-1-0.9h-3.8c-0.6,0-1,0.3-1,0.9c0,0,0,90.7,0,90.7
			c0,6.4-5.2,11.5-11.5,11.5s-11.5-5.2-11.5-11.6c0,0,0-153.4,0-153.4c0-0.5-0.5-0.9-1-0.9h-3.9c-0.5,0-0.9,0.4-0.9,0.9l0,54.5
			c0,4.9-4.1,8.7-9,8.7c-5,0-9-3.8-9-8.7c0,0,0-61.6,0-62.3c0-12.3,11.5-22,23.3-22c0.3,0,52.6,0,52.9,0c11.8,0,23.3,9.7,23.3,22
			c0,0.7,0,62.3,0,62.3C286.2,352,282.2,355.8,277.3,355.8z M340.1,223.3c9.5,0,17.2,7.7,17.2,17.2s-7.7,17.2-17.2,17.2
			s-17.2-7.7-17.2-17.2S330.6,223.3,340.1,223.3z M286.6,331.5c0,0,13.7-44.8,13.7-44.9c2.1-7.3,7.2-23.9,21.6-23.9h38.7
			c15.5,0,19.5,16.6,21.6,23.9c0,0,13.7,44.9,13.7,44.9c1.5,4.8-1.2,10-6.1,11.5c-4.8,1.5-10-1.2-11.5-6.1c0,0-13.7-44.7-13.7-44.7
			c-0.1-0.2-0.5-1-1.5-1c-0.1,0-1.9,0-1.9,0h0c-0.5,0-0.9,0.5-0.7,1l27.5,89.9c0.1,0.5,0,1.4-1,1.4h-19.3c-0.5,0-0.9,0.4-0.9,1
			c0,0,0,65.5,0,65.5c0,6.5-5.3,11.8-11.8,11.8s-11.8-5.3-11.8-11.8v-65.5c0-0.5-0.4-1-1-1h0h-1.9h0c-0.5,0-1,0.4-1,1l0,65.5
			c0,6.5-5.3,11.8-11.8,11.8c-6.5,0-11.8-5.3-11.8-11.8c0,0,0-65.5,0-65.5c0-0.5-0.4-1-0.9-1h-19.3c-1,0-1.1-0.9-1-1.4l27.5-89.9
			c0.1-0.5-0.2-1-0.7-1h0c0,0-1.8,0-1.9,0c-1,0-1.4,0.8-1.5,1c0,0-13.7,44.7-13.7,44.7c-1.5,4.8-6.6,7.6-11.5,6.1
			C287.9,341.5,285.1,336.4,286.6,331.5z"/>
	</g>
</g>
</svg>
