<?xml version="1.0" encoding="utf-8"?>
<!-- Generator: Adobe Illustrator 25.0.0, SVG Export Plug-In . SVG Version: 6.00 Build 0)  -->
<svg version="1.1" id="Capa_1" xmlns="http://www.w3.org/2000/svg" xmlns:xlink="http://www.w3.org/1999/xlink" x="0px" y="0px"
	 viewBox="0 0 251.5 251.5" fill="#EA3A60" xml:space="preserve">
<style type="text/css">
	.st0{display:none;}
	.st1{display:inline;}
</style>
<g id="relax" class="st0">
	<g class="st1">
		<g>
			<path d="M160.6,100.5l-5.5-4.8c-1.1-1-2.9-0.5-3.4,1l-3.9,13.7h-4.7c-0.9,0-1.5,0.7-1.4,1.6l0.6,5c1.7,0,3.4,0.4,5,1.3
				c4.4,2.4,6.3,7.6,4.7,12.2h2.1c0.7,0,1.3-0.5,1.4-1.3l2-17.2c0.1-0.8-0.6-1.6-1.4-1.6h-4l2.7-9.4l3.1,2.7
				c0.9,0.8,2.2,0.7,2.9-0.2C161.5,102.5,161.4,101.2,160.6,100.5z"/>
		</g>
	</g>
	<g class="st1">
		<g>
			<path d="M187,184.8l-24-30.4c-2-2.5-5.6-3-8.2-1.2l-11.1,8l-5.9-6.9c-1.3,0.7-2.8,0.9-4.3,0.6l-19.7-3.7l19.2-1.5
				c1.7-0.1,3.2-1.1,4-2.6l9.7-17.5c1.3-2.4,0.5-5.5-1.9-6.8c-2.4-1.3-5.5-0.5-6.8,1.9l-8.4,15.1l-16.6,1.3l10.5-3.7l-1.1-1.3
				c-2.7-3.1-7.4-3.5-10.5-0.8l-9.7,8.2c-1.6,1.3-2.5,3.3-2.6,5.4c-0.1,2.1,0.7,4.1,2.2,5.6l26.1,26.2c1.4,1.4,3.2,2,5.1,1.8
				c1.5-0.1,2.9-0.8,3.9-1.9c0,0,0,0,0,0l20.2-14.4l20.5,26c2.1,2.6,5.8,3,8.4,1C188.6,191.2,189,187.4,187,184.8z"/>
		</g>
	</g>
	<g class="st1">
		<g>
			<circle cx="101.4" cy="121.2" r="11.1"/>
		</g>
	</g>
	<g class="st1">
		<g>
			<path d="M160,174.1c-1.5-1.8-4.1-2-5.8-0.6l-21.7,17.9l-42.2-42.2c1.9,0.4,3.8-0.2,5.1-1.5c2.2-2.2,2.2-5.7,0-7.8l-14.1-14.1
				c-2.2-2.2-5.7-2.2-7.8,0c-1.4,1.4-1.9,3.3-1.5,5.1l-1.7-1.7c-1.6-1.6-4.2-1.6-5.9,0c-1.6,1.6-1.6,4.2,0,5.9l61.6,61.6l-12.7,10.5
				c-1.8,1.5-2,4.1-0.6,5.8c1.5,1.8,4.1,2,5.8,0.6l13.3-11l10.7,10.7c1.6,1.6,4.2,1.6,5.9,0c1.6-1.6,1.6-4.2,0-5.9l-10.2-10.2
				l21.1-17.4C161.2,178.5,161.4,175.8,160,174.1z"/>
		</g>
	</g>
</g>
<path d="M209.4,135.6c-4.1,0-7.5,3.4-7.5,7.5v76.1H49.6v-76.1c0-4.1-3.4-7.5-7.5-7.5s-7.5,3.4-7.5,7.5v83.6c0,4.1,3.4,7.5,7.5,7.5
	h167.2c4.1,0,7.5-3.4,7.5-7.5v-83.6C216.9,138.9,213.5,135.6,209.4,135.6z"/>
<path d="M249.3,137.7L131,19.5c-2.9-2.9-7.7-2.9-10.6,0L2.2,137.7c-2.9,2.9-2.9,7.7,0,10.6c1.5,1.5,3.4,2.2,5.3,2.2
	c1.9,0,3.8-0.7,5.3-2.2L125.7,35.4l112.9,112.9c2.9,2.9,7.7,2.9,10.6,0C252.2,145.4,252.2,140.7,249.3,137.7z"/>
<g>
	<path d="M88.3,210.9h18.6c3.1,0,5.6-2.5,5.6-5.6v-30.8h3.2c3.1,0,5.6-2.5,5.6-5.6v-34.7c0-3.1-2.5-5.6-5.6-5.6H79.5
		c-3.1,0-5.6,2.5-5.6,5.6v34.7c0,3.1,2.5,5.6,5.6,5.6h3.2v30.8C82.7,208.4,85.1,210.9,88.3,210.9z"/>
	<circle cx="97.5" cy="108.5" r="14.7"/>
</g>
<g>
	<path d="M146.4,210.9H165c3.1,0,5.6-2.5,5.6-5.6v-30.8h3.2c3.1,0,5.6-2.5,5.6-5.6v-34.7c0-3.1-2.5-5.6-5.6-5.6h-36.2
		c-3.1,0-5.6,2.5-5.6,5.6v34.7c0,3.1,2.5,5.6,5.6,5.6h3.2v30.8C140.8,208.4,143.2,210.9,146.4,210.9z"/>
	<circle cx="155.6" cy="108.5" r="14.7"/>
</g>
</svg>
