<?xml version="1.0" encoding="utf-8"?>
<!-- Generator: Adobe Illustrator 25.0.0, SVG Export Plug-In . SVG Version: 6.00 Build 0)  -->
<svg version="1.1" id="Capa_1" xmlns="http://www.w3.org/2000/svg" xmlns:xlink="http://www.w3.org/1999/xlink" x="0px" y="0px"
	 viewBox="0 0 251.5 251.5" fill="#EA3A60" xml:space="preserve">
<style type="text/css">
	.st0{display:none;}
	.st1{display:inline;}
</style>
<g id="home" class="st0">
	<path class="st1" d="M99.4,124c-6.8,0-12.3-5.5-12.3-12.3c0-6.8,5.5-12.3,12.3-12.3s12.3,5.5,12.3,12.3l0,0
		C111.7,118.5,106.2,124,99.4,124z M99.4,105.6c-3.4,0-6.1,2.7-6.1,6.1c0,3.4,2.7,6.1,6.1,6.1s6.1-2.7,6.1-6.1l0,0
		C105.5,108.3,102.8,105.6,99.4,105.6z"/>
	<path class="st1" d="M107.1,203H91.7c-4.3,0-7.7-3.5-7.7-7.7v-27c-4.3,0-7.7-3.5-7.7-7.7v-23.2c0-6.4,5.2-11.6,11.6-11.6H111
		c6.4,0,11.6,5.2,11.6,11.6v23.2c0,4.3-3.5,7.7-7.7,7.7v27C114.8,199.5,111.4,203,107.1,203z M87.8,133.5c-2-0.1-3.7,1.4-3.9,3.4
		c0,0.2,0,0.3,0,0.5v23.2h7.7v34.8h15.5v-34.8h7.7v-23.2c0.1-2-1.4-3.7-3.4-3.9c-0.2,0-0.3,0-0.5,0H87.8z"/>
	<path class="st1" d="M152.4,123.3c-6.8,0-12.3-5.5-12.3-12.3s5.5-12.3,12.3-12.3s12.3,5.5,12.3,12.3l0,0
		C164.7,117.8,159.2,123.3,152.4,123.3z M152.4,104.9c-3.4,0-6.1,2.7-6.1,6.1s2.7,6.1,6.1,6.1s6.1-2.7,6.1-6.1l0,0
		C158.6,107.7,155.8,104.9,152.4,104.9z"/>
	<path class="st1" d="M160.1,202.3h-15.5c-4.3,0-7.7-3.5-7.7-7.7v-27c-4.3,0-7.7-3.5-7.7-7.7v-23.2c0-6.4,5.2-11.6,11.6-11.6H164
		c6.4,0,11.6,5.2,11.6,11.6v23.2c0,4.3-3.5,7.7-7.7,7.7v27C167.9,198.9,164.4,202.3,160.1,202.3z M140.8,132.8
		c-2-0.1-3.7,1.4-3.9,3.4c0,0.2,0,0.3,0,0.5v23.2h7.7v34.8h15.5v-34.8h7.7v-23.2c0.1-2-1.4-3.7-3.4-3.9c-0.2,0-0.3,0-0.5,0H140.8z"
		/>
</g>
<g id="relax">
	<g>
		<g>
			<path d="M160.6,100.5l-5.5-4.8c-1.1-1-2.9-0.5-3.4,1l-3.9,13.7h-4.7c-0.9,0-1.5,0.7-1.4,1.6l0.6,5c1.7,0,3.4,0.4,5,1.3
				c4.4,2.4,6.3,7.6,4.7,12.2h2.1c0.7,0,1.3-0.5,1.4-1.3l2-17.2c0.1-0.8-0.6-1.6-1.4-1.6h-4l2.7-9.4l3.1,2.7
				c0.9,0.8,2.2,0.7,2.9-0.2C161.5,102.5,161.4,101.2,160.6,100.5z"/>
		</g>
	</g>
	<g>
		<g>
			<path d="M187,184.8l-24-30.4c-2-2.5-5.6-3-8.2-1.2l-11.1,8l-5.9-6.9c-1.3,0.7-2.8,0.9-4.3,0.6l-19.7-3.7l19.2-1.5
				c1.7-0.1,3.2-1.1,4-2.6l9.7-17.5c1.3-2.4,0.5-5.5-1.9-6.8c-2.4-1.3-5.5-0.5-6.8,1.9l-8.4,15.1l-16.6,1.3l10.5-3.7l-1.1-1.3
				c-2.7-3.1-7.4-3.5-10.5-0.8l-9.7,8.2c-1.6,1.3-2.5,3.3-2.6,5.4c-0.1,2.1,0.7,4.1,2.2,5.6l26.1,26.2c1.4,1.4,3.2,2,5.1,1.8
				c1.5-0.1,2.9-0.8,3.9-1.9c0,0,0,0,0,0l20.2-14.4l20.5,26c2.1,2.6,5.8,3,8.4,1C188.6,191.2,189,187.4,187,184.8z"/>
		</g>
	</g>
	<g>
		<g>
			<circle cx="101.4" cy="121.2" r="11.1"/>
		</g>
	</g>
	<g>
		<g>
			<path d="M160,174.1c-1.5-1.8-4.1-2-5.8-0.6l-21.7,17.9l-42.2-42.2c1.9,0.4,3.8-0.2,5.1-1.5c2.2-2.2,2.2-5.7,0-7.8l-14.1-14.1
				c-2.2-2.2-5.7-2.2-7.8,0c-1.4,1.4-1.9,3.3-1.5,5.1l-1.7-1.7c-1.6-1.6-4.2-1.6-5.9,0c-1.6,1.6-1.6,4.2,0,5.9l61.6,61.6l-12.7,10.5
				c-1.8,1.5-2,4.1-0.6,5.8c1.5,1.8,4.1,2,5.8,0.6l13.3-11l10.7,10.7c1.6,1.6,4.2,1.6,5.9,0c1.6-1.6,1.6-4.2,0-5.9l-10.2-10.2
				l21.1-17.4C161.2,178.5,161.4,175.8,160,174.1z"/>
		</g>
	</g>
</g>
<path d="M209.4,135.6c-4.1,0-7.5,3.4-7.5,7.5v76.1H49.6v-76.1c0-4.1-3.4-7.5-7.5-7.5s-7.5,3.4-7.5,7.5v83.6c0,4.1,3.4,7.5,7.5,7.5
	h167.2c4.1,0,7.5-3.4,7.5-7.5v-83.6C216.9,138.9,213.5,135.6,209.4,135.6z"/>
<path d="M249.3,137.7L131,19.5c-2.9-2.9-7.7-2.9-10.6,0L2.2,137.7c-2.9,2.9-2.9,7.7,0,10.6c1.5,1.5,3.4,2.2,5.3,2.2
	c1.9,0,3.8-0.7,5.3-2.2L125.7,35.4l112.9,112.9c2.9,2.9,7.7,2.9,10.6,0C252.2,145.4,252.2,140.7,249.3,137.7z"/>
</svg>
