<?xml version="1.0" encoding="utf-8"?>
<!-- Generator: Adobe Illustrator 25.0.0, SVG Export Plug-In . SVG Version: 6.00 Build 0)  -->
<svg version="1.1" id="Capa_1" xmlns="http://www.w3.org/2000/svg" xmlns:xlink="http://www.w3.org/1999/xlink" x="0px" y="0px"
	 viewBox="0 0 251.5 251.5" fill="#EA3A60" xml:space="preserve">
<style type="text/css">
	.st0{display:none;}
	.st1{display:inline;}
</style>
<g id="home" class="st0">
	<g class="st1">
		<path d="M88.3,210.9h18.6c3.1,0,5.6-2.5,5.6-5.6v-30.8h3.2c3.1,0,5.6-2.5,5.6-5.6v-34.7c0-3.1-2.5-5.6-5.6-5.6H79.5
			c-3.1,0-5.6,2.5-5.6,5.6v34.7c0,3.1,2.5,5.6,5.6,5.6h3.2v30.8C82.7,208.4,85.1,210.9,88.3,210.9z"/>
		<circle cx="97.5" cy="108.5" r="14.7"/>
	</g>
	<g class="st1">
		<path d="M146.4,210.9H165c3.1,0,5.6-2.5,5.6-5.6v-30.8h3.2c3.1,0,5.6-2.5,5.6-5.6v-34.7c0-3.1-2.5-5.6-5.6-5.6h-36.2
			c-3.1,0-5.6,2.5-5.6,5.6v34.7c0,3.1,2.5,5.6,5.6,5.6h3.2v30.8C140.8,208.4,143.2,210.9,146.4,210.9z"/>
		<circle cx="155.6" cy="108.5" r="14.7"/>
	</g>
</g>
<path class="st0" d="M155.3,116.1H86.4v66.5c0,5.4,4.4,9.8,9.8,9.8h49.2c5.4,0,9.8-4.4,9.8-9.8v-12.3c15,0,27.1-12.1,27.1-27.1
	C182.4,128.2,170.2,116.1,155.3,116.1z M155.3,157.9v-29.5c8.2,0,14.8,6.6,14.8,14.8C170.1,151.3,163.4,157.9,155.3,157.9z
	 M69.1,197.3v5.7c0,4.7,5.1,6.6,11.3,6.6H171c6.2,0,11.3-2,11.3-6.6v-5.7C182.4,197.3,69.1,197.3,69.1,197.3z"/>
<g id="warenhouse" class="st0">
	<g class="st1">
		<path d="M188.3,192.1v-30.2v-11.2h6.1V144h-6.1v-23.4v-18.1h-8.7v18.1v6.7H173v7.9h-8.7v-7.9h-6.5V144h-8.7v-23.4v-6.9h-15.4v7.9
			h-8.7v-7.9h-15.4v1.2V144h-8.7v-22.5H90.8v7.9h-8.7v-7.9H71.9v-6.7v-12.4h-8.7v12.4V144h-6.1v6.7h6.1v8.1v33.4h-6.1v6.7h6.1v16
			h8.7v-16h34.7h8.7h25.1h8.7h30.6v16h8.7v-16h6.1v-6.7H188.3z M179.6,161.9v6.7h-11v7.9H160v-7.9h-11v23.5h-8.7v-19.3h-8.2v7.9
			h-8.7v-7.9h-8.2v19.3h-8.7v-26v-0.7h-13v7.9h-8.7v-7.9h-13v-6.7v-8.1h29.2h8.7h39.4h8.7h21.7V161.9z"/>
	</g>
</g>
<g id="office" class="st0">
	<g class="st1">
		<path d="M121.3,132.6c-0.8,6.3,3.7,12.1,10.1,12.8c6.3,0.8,12-3.7,12.8-10.1c0.8-6.3-3.7-12.1-10-12.8
			C127.8,121.7,122.1,126.2,121.3,132.6z"/>
		<path d="M119.4,174.7c0-8.5-6.4-12.4-10.8-13l-0.8-0.1c-2.4,0-5.3,0-8.1,0c2.5-3.2,7.5-9.2,7.9-9.8c1,1.4,2.1,2.9,3.6,4.1
			c3.5,3.1,7.9,5,13,5.6c2.8,0.3,12-0.5,14.2-0.9c2.5-0.5,3.9-1.6,4.8-2.9c1.2-2.3,1.1-4.9,1.1-4.9c-0.2-4.6-4.4-6.1-8-5.3
			c-5.3,1.2-12.4,1.9-16.3-1.5c-1.6-1.4-2.5-3.4-3-5.4c1.5-3.3,1.3-7.3-0.9-10.5c-3.4-5.1-9.8-5.9-15.3-3.1
			c-5.4,2.7-19,18.6-22.5,30.2c0,0,0,0,0,0c0,0.1-0.1,0.3-0.1,0.4c-0.4,1.3-0.6,2.5-0.7,3.7c-0.4,2.3-0.5,4.5-0.5,6.4l0.1,0
			c0,3.3,2.6,6,5.9,6.2c1.9,0.1,18.6,0.1,23.9,0.1c0,0.1,0,0.3,0,0.5c0,4.8,0,22.3,0,30.4c0,2.3,1.9,4.1,4.2,4.1h4.1
			c1.1,0,2.2-0.4,3-1.2c0.8-0.8,1.2-1.8,1.2-2.9C119.5,196.9,119.4,179.5,119.4,174.7z"/>
		<path d="M73.7,121.8c0-3.5-2.8-6.2-6.3-6.2c-3.5,0-6.3,2.8-6.3,6.2v62.5c0,3.2,2.5,5.9,5.6,6.2c0,0,0,0,0,0h2.2v14.6
			c0,2.3,1.8,4.2,4.1,4.2c2.3,0,4.1-1.9,4.1-4.2v-14.6h13.2v14.6c0,2.3,1.8,4.2,4.1,4.2c2.3,0,4.1-1.9,4.1-4.2v-14.6h4.1V178H73.7
			L73.7,121.8L73.7,121.8z"/>
		<path d="M186.2,163.3c-1-4.9-4.1-9-8.4-11.3v-4h6v-27.4l-22.8-8.1v-4h-8.2v41.8h8.2V148h4.3v2.9c-5.6,1.8-9.9,6.5-11.1,12.4h-26.4
			c-2.3,0-4.2,2-4.2,4.3c0,2.3,1.9,4.3,4.2,4.3h8.4v37.5h45.9v-37.5h4c2.3,0,4.2-1.9,4.2-4.3C190.3,165.3,188.5,163.4,186.2,163.3z"
			/>
	</g>
</g>
<g id="relax" class="st0">
	<g class="st1">
		<g>
			<path d="M160.6,100.5l-5.5-4.8c-1.1-1-2.9-0.5-3.4,1l-3.9,13.7h-4.7c-0.9,0-1.5,0.7-1.4,1.6l0.6,5c1.7,0,3.4,0.4,5,1.3
				c4.4,2.4,6.3,7.6,4.7,12.2h2.1c0.7,0,1.3-0.5,1.4-1.3l2-17.2c0.1-0.8-0.6-1.6-1.4-1.6h-4l2.7-9.4l3.1,2.7
				c0.9,0.8,2.2,0.7,2.9-0.2C161.5,102.5,161.4,101.2,160.6,100.5z"/>
		</g>
	</g>
	<g class="st1">
		<g>
			<path d="M187,184.8l-24-30.4c-2-2.5-5.6-3-8.2-1.2l-11.1,8l-5.9-6.9c-1.3,0.7-2.8,0.9-4.3,0.6l-19.7-3.7l19.2-1.5
				c1.7-0.1,3.2-1.1,4-2.6l9.7-17.5c1.3-2.4,0.5-5.5-1.9-6.8c-2.4-1.3-5.5-0.5-6.8,1.9l-8.4,15.1l-16.6,1.3l10.5-3.7l-1.1-1.3
				c-2.7-3.1-7.4-3.5-10.5-0.8l-9.7,8.2c-1.6,1.3-2.5,3.3-2.6,5.4c-0.1,2.1,0.7,4.1,2.2,5.6l26.1,26.2c1.4,1.4,3.2,2,5.1,1.8
				c1.5-0.1,2.9-0.8,3.9-1.9c0,0,0,0,0,0l20.2-14.4l20.5,26c2.1,2.6,5.8,3,8.4,1C188.6,191.2,189,187.4,187,184.8z"/>
		</g>
	</g>
	<g class="st1">
		<g>
			<circle cx="101.4" cy="121.2" r="11.1"/>
		</g>
	</g>
	<g class="st1">
		<g>
			<path d="M160,174.1c-1.5-1.8-4.1-2-5.8-0.6l-21.7,17.9l-42.2-42.2c1.9,0.4,3.8-0.2,5.1-1.5c2.2-2.2,2.2-5.7,0-7.8l-14.1-14.1
				c-2.2-2.2-5.7-2.2-7.8,0c-1.4,1.4-1.9,3.3-1.5,5.1l-1.7-1.7c-1.6-1.6-4.2-1.6-5.9,0c-1.6,1.6-1.6,4.2,0,5.9l61.6,61.6l-12.7,10.5
				c-1.8,1.5-2,4.1-0.6,5.8c1.5,1.8,4.1,2,5.8,0.6l13.3-11l10.7,10.7c1.6,1.6,4.2,1.6,5.9,0c1.6-1.6,1.6-4.2,0-5.9l-10.2-10.2
				l21.1-17.4C161.2,178.5,161.4,175.8,160,174.1z"/>
		</g>
	</g>
</g>
<path d="M209.4,135.6c-4.1,0-7.5,3.4-7.5,7.5v76.1H49.6v-76.1c0-4.1-3.4-7.5-7.5-7.5s-7.5,3.4-7.5,7.5v83.6c0,4.1,3.4,7.5,7.5,7.5
	h167.2c4.1,0,7.5-3.4,7.5-7.5v-83.6C216.9,138.9,213.5,135.6,209.4,135.6z"/>
<path d="M249.3,137.7L131,19.5c-2.9-2.9-7.7-2.9-10.6,0L2.2,137.7c-2.9,2.9-2.9,7.7,0,10.6c1.5,1.5,3.4,2.2,5.3,2.2
	c1.9,0,3.8-0.7,5.3-2.2L125.7,35.4l112.9,112.9c2.9,2.9,7.7,2.9,10.6,0C252.2,145.4,252.2,140.7,249.3,137.7z"/>
<path d="M180.3,193.9L155.3,169c-1.1-1.1-2.6-1.8-4.2-1.8c-0.7,0-1.3,0.1-2,0.3l-6-6c-0.9-0.9-2.1-1.4-3.4-1.4s-2.5,0.5-3.4,1.4
	l-1.6,1.6l-2.8-2.8l12.3-12.4c2.9,1.2,6,1.8,9.2,1.8c0,0,0,0,0,0c6.2,0,12-2.4,16.4-6.7c5.9-5.9,8.2-14.5,6-22.5
	c-0.3-1-1.2-1.7-2.2-1.7c-0.4,0-1.1,0.1-1.7,0.7c-0.1,0.1-8.4,8.3-11.1,11.1c-0.3,0.3-0.8,0.3-1.1,0.3c-0.2,0-0.3,0-0.3,0v0l-0.2,0
	c-3.4-0.3-7.5-0.9-8.5-1.4c-0.5-1-1.1-5.2-1.4-8.7v0l-0.1-0.1c0-0.2-0.1-0.9,0.6-1.6c2.9-2.9,10.7-10.8,10.8-10.8
	c0.7-0.7,0.9-1.5,0.7-2.3c-0.3-0.9-1.1-1.5-1.7-1.7c-2-0.5-4-0.8-6.1-0.8c-6.2,0-12,2.4-16.4,6.8c-6.9,6.9-8.5,17.2-4.9,25.6
	L120,148.2l-21.1-21.1c0,0,0,0,0,0c0.2-0.8,0.3-1.7,0.3-2.5c-0.1-2.4-1.2-4.8-3-6.6l-7.5-7.5c-0.2-0.2-1-1-2.4-1
	c-0.6,0-1.5,0.2-2.4,1.1l-8.2,8.2c-1,1-1.3,2.2-0.9,3.4c0.2,0.8,0.7,1.3,0.9,1.4L83,131c2,2,4.5,3,7,3c0,0,0,0,0,0
	c0.7,0,1.4-0.1,2.1-0.3c0,0,0,0,0,0l21.1,21.1l-10,10c-0.5,0.5-0.8,0.9-1.2,1.5c-2.9-1.3-6.1-2-9.4-2c-6.2,0-12,2.4-16.4,6.8
	c-5.9,5.9-8.2,14.5-6,22.5c0.3,1,1.2,1.7,2.2,1.7c0,0,0,0,0,0c0.4,0,1.1-0.1,1.7-0.7c0.1-0.1,8.4-8.3,11.1-11.1
	c0.3-0.3,0.8-0.3,1.1-0.3c0.2,0,0.4,0,0.4,0h0l0.2,0c3.4,0.3,7.5,0.9,8.6,1.4c0.5,1,1.1,5.2,1.4,8.7l0,0.2c0,0,0.1,0.9-0.6,1.6
	c-2.9,2.9-10.7,10.8-10.8,10.8c-0.7,0.7-0.9,1.5-0.7,2.3c0.3,0.9,1.1,1.5,1.7,1.7c2,0.5,4,0.8,6.1,0.8c6.2,0,12-2.4,16.4-6.8
	c4.4-4.4,6.8-10.2,6.8-16.4c0-3.3-0.7-6.5-2-9.4c0.5-0.3,1-0.7,1.5-1.2l10-10l2.8,2.8l-1.6,1.6c-0.9,0.9-1.4,2.1-1.4,3.4
	c0,1.3,0.5,2.5,1.4,3.4l6,6c-0.2,0.6-0.3,1.3-0.3,2c0,1.6,0.6,3.1,1.8,4.2l24.9,24.9c1.1,1.1,2.6,1.8,4.2,1.8s3.1-0.6,4.2-1.8
	l12.9-12.9c1.1-1.1,1.8-2.6,1.8-4.2C182,196.5,181.4,195,180.3,193.9z"/>
</svg>
