<?xml version="1.0" encoding="utf-8"?>
<!-- Generator: Adobe Illustrator 25.0.0, SVG Export Plug-In . SVG Version: 6.00 Build 0)  -->
<svg version="1.1" id="Layer_1" xmlns="http://www.w3.org/2000/svg" xmlns:xlink="http://www.w3.org/1999/xlink" x="0px" y="0px"
	 viewBox="0 0 256 256" fill="#C3183D" xml:space="preserve">
<style type="text/css">
	.st0{display:none;}
	.st1{display:inline;}
</style>
<desc>Created with Fabric.js 1.7.22</desc>
<g transform="translate(128 128) scale(0.72 0.72)">
	<g transform="translate(-175.05 -175.05000000000004) scale(3.89 3.89)">
		<path d="M75.8,85.1H14.2c-1.7,0-3-1.3-3-3V41.2c0-1.7,1.3-3,3-3s3,1.3,3,3v37.9h55.7V41.2c0-1.7,1.3-3,3-3s3,1.3,3,3v40.9
			C78.8,83.8,77.5,85.1,75.8,85.1z"/>
		<path d="M86.5,39.1c-0.6,0-1.2-0.2-1.7-0.5L45,11.5L5.2,38.6c-1.4,0.9-3.2,0.6-4.2-0.8c-0.9-1.4-0.6-3.2,0.8-4.2L43.3,5.4
			c1-0.7,2.4-0.7,3.4,0l41.5,28.2c1.4,0.9,1.7,2.8,0.8,4.2C88.4,38.6,87.5,39.1,86.5,39.1z"/>
		<path d="M75.8,19.2c-1.7,0-3-1.3-3-3v-4.8h-7.6c-1.7,0-3-1.3-3-3s1.3-3,3-3h10.6c1.7,0,3,1.3,3,3v7.8
			C78.8,17.9,77.5,19.2,75.8,19.2z"/>
	</g>
</g>
<g id="one" transform="translate(128 128) scale(0.72 0.72)" class="st0">
	<g transform="translate(-175.05 -175.05000000000004) scale(3.89 3.89)" class="st1">
		<path d="M45,35.8L45,35.8c-2.7,0-4.9-2.2-4.9-4.9v-1.6c0-2.7,2.2-4.9,4.9-4.9l0,0c2.7,0,4.9,2.2,4.9,4.9v1.6
			C49.9,33.6,47.7,35.8,45,35.8z"/>
		<path d="M45,36.4c-3,0-5.5-2.5-5.5-5.5v-1.6c0-3,2.5-5.5,5.5-5.5c3,0,5.5,2.5,5.5,5.5v1.6C50.5,33.9,48,36.4,45,36.4z M45,25
			c-2.4,0-4.4,2-4.4,4.4v1.6c0,2.4,2,4.4,4.4,4.4c2.4,0,4.4-2,4.4-4.4v-1.6C49.4,26.9,47.4,25,45,25z"/>
		<path d="M47.9,38.8h-5.8c-3.1,0-5.7,2.6-5.7,5.7v8.7c0,2.5,1.6,4.6,3.8,5.4l1.1,15c0.1,1.1,1.1,2,2.2,2h2.8c1.1,0,2.1-0.9,2.2-2
			l1.1-15c2.2-0.8,3.8-2.9,3.8-5.4v-8.7C53.6,41.4,51,38.8,47.9,38.8z"/>
		<path d="M46.4,76.2h-2.8c-1.5,0-2.7-1.1-2.8-2.6l-1.1-14.6c-2.3-1-3.9-3.3-3.9-5.8v-8.7c0-3.5,2.8-6.3,6.3-6.3h5.8
			c3.5,0,6.3,2.8,6.3,6.3v8.7c0,2.5-1.5,4.8-3.9,5.8l-1.1,14.6C49,75.1,47.8,76.2,46.4,76.2z M42.1,39.4c-2.8,0-5.1,2.3-5.1,5.1v8.7
			c0,2.2,1.4,4.1,3.5,4.8c0.2,0.1,0.4,0.3,0.4,0.5l1.1,15c0.1,0.8,0.8,1.5,1.6,1.5h2.8c0.9,0,1.6-0.6,1.6-1.5l1.1-15
			c0-0.2,0.2-0.4,0.4-0.5c2.1-0.7,3.5-2.7,3.5-4.8v-8.7c0-2.8-2.3-5.1-5.1-5.1L42.1,39.4L42.1,39.4z"/>
	</g>
</g>
<g id="two" transform="translate(128 128) scale(0.72 0.72)">
	<g transform="translate(-175.05 -175.05000000000004) scale(3.89 3.89)">
		<path d="M31.9,36.9L31.9,36.9c-2.8,0-5.1-2.3-5.1-5.1v-1.6c0-2.8,2.3-5.1,5.1-5.1l0,0c2.8,0,5.1,2.3,5.1,5.1v1.6
			C36.9,34.7,34.7,36.9,31.9,36.9z"/>
		<path d="M31.9,37.5c-3.1,0-5.7-2.5-5.7-5.7v-1.6c0-3.1,2.5-5.7,5.7-5.7s5.7,2.5,5.7,5.7v1.6C37.5,35,35,37.5,31.9,37.5z
			 M31.9,25.8c-2.5,0-4.5,2-4.5,4.5v1.6c0,2.5,2,4.5,4.5,4.5s4.5-2,4.5-4.5v-1.6C36.3,27.8,34.3,25.8,31.9,25.8z"/>
		<path d="M34.8,40h-5.9c-3.2,0-5.8,2.6-5.8,5.8v8.9c0,2.6,1.6,4.7,3.9,5.5l1.2,15.4c0.1,1.2,1.1,2.1,2.3,2.1h2.8
			c1.2,0,2.2-0.9,2.3-2.1l1.2-15.4c2.3-0.8,3.9-3,3.9-5.5v-8.9C40.7,42.6,38,40,34.8,40z"/>
		<path d="M33.3,78.4h-2.8c-1.5,0-2.7-1.1-2.9-2.6l-1.2-15c-2.4-1-4-3.3-4-5.9v-8.9c0-3.6,2.9-6.4,6.4-6.4h5.9
			c3.6,0,6.4,2.9,6.4,6.4v8.9c0,2.6-1.6,5-4,5.9l-1.1,15C36,77.2,34.8,78.4,33.3,78.4z M28.9,40.6c-2.9,0-5.2,2.4-5.2,5.2v8.9
			c0,2.2,1.4,4.2,3.5,5c0.2,0.1,0.4,0.3,0.4,0.5l1.2,15.4c0.1,0.9,0.8,1.5,1.7,1.5h2.8c0.9,0,1.6-0.7,1.7-1.5l1.2-15.4
			c0-0.2,0.2-0.4,0.4-0.5c2.1-0.7,3.5-2.7,3.5-5v-8.9c0-2.9-2.4-5.2-5.2-5.2L28.9,40.6L28.9,40.6z"/>
		<path d="M58.1,36.9L58.1,36.9c-2.8,0-5.1-2.3-5.1-5.1v-1.6c0-2.8,2.3-5.1,5.1-5.1l0,0c2.8,0,5.1,2.3,5.1,5.1v1.6
			C63.2,34.7,60.9,36.9,58.1,36.9z"/>
		<path d="M58.1,37.5c-3.1,0-5.7-2.5-5.7-5.7v-1.6c0-3.1,2.5-5.7,5.7-5.7c3.1,0,5.7,2.5,5.7,5.7v1.6C63.8,35,61.3,37.5,58.1,37.5z
			 M58.1,25.8c-2.5,0-4.5,2-4.5,4.5v1.6c0,2.5,2,4.5,4.5,4.5s4.5-2,4.5-4.5v-1.6C62.6,27.8,60.6,25.8,58.1,25.8z"/>
		<path d="M66.6,68.5l-1-10.1c0.8-1,1.3-2.2,1.3-3.6v-8.9c0-3.2-2.6-5.8-5.8-5.8h-5.9c-3.2,0-5.8,2.6-5.8,5.8v8.9
			c0,1.4,0.5,2.6,1.3,3.6l-1,10.1h4.3l0.6,7.2c0.1,1.2,1.1,2.1,2.3,2.1h2.8c1.2,0,2.2-0.9,2.3-2.1l0.6-7.2H66.6z"/>
		<path d="M59.6,78.4h-2.8c-1.5,0-2.7-1.1-2.9-2.6l-0.5-6.7h-3.7c-0.2,0-0.3-0.1-0.4-0.2c-0.1-0.1-0.2-0.3-0.2-0.5l0.9-9.8
			c-0.8-1.1-1.2-2.4-1.2-3.8v-8.9c0-3.6,2.9-6.4,6.4-6.4h5.9c3.6,0,6.4,2.9,6.4,6.4v8.9c0,1.4-0.4,2.7-1.2,3.8l0.9,9.8
			c0,0.2,0,0.3-0.2,0.5s-0.3,0.2-0.4,0.2h-3.7l-0.5,6.7C62.3,77.2,61.1,78.4,59.6,78.4z M50.3,67.9h3.6c0.3,0,0.6,0.2,0.6,0.6
			l0.6,7.2c0.1,0.9,0.8,1.5,1.7,1.5h2.8c0.9,0,1.6-0.7,1.7-1.5l0.6-7.2c0-0.3,0.3-0.6,0.6-0.6H66l-0.9-9.4c0-0.2,0-0.3,0.1-0.4
			c0.7-0.9,1.1-2.1,1.1-3.2v-8.9c0-2.9-2.4-5.2-5.2-5.2h-5.9c-2.9,0-5.2,2.4-5.2,5.2v8.9c0,1.2,0.4,2.3,1.1,3.2
			c0.1,0.1,0.1,0.3,0.1,0.4L50.3,67.9z"/>
	</g>
</g>
</svg>
